<svg xmlns="http://www.w3.org/2000/svg" version="1.1" viewBox="-5.0 -10.0 110.0 135.0">
 <path d="m170 24.605c5.4531 0 9.8945-4.4375 9.8945-9.8945 0-5.457-4.4375-9.8945-9.8945-9.8945s-9.8945 4.4375-9.8945 9.8945c0 5.4531 4.4375 9.8945 9.8945 9.8945zm45.121 29.969c0 0.82422-0.6875 1.4883-1.5078 1.4883h-2.0625v4.8359c0 2.1523-1.7734 3.9258-3.9258 3.9258s-3.9297-1.7734-3.9297-3.9258v-4.8359h-1.5312v7.8281c0 2.1523-1.7734 3.9023-3.9258 3.9023-2.1719 0-3.9258-1.7539-3.9258-3.9023v-7.8281h-6.4102c-1.3789 2.6836-4.8555 3.9258-7.2969 2.3516 1.3945 8.0703 4.0586 21.676 5.2148 29.836 1.2227 8.5625-11.027 9.0547-12.203 2.2383l-3.6172-20.539-4.2812 20.539c-1.3984 6.7695-13.426 6.3242-12.199-2.2383 1.1523-8.1602 4.4805-21.766 5.8789-29.836-2.4375 1.5742-5.9414 0.33203-7.3008-2.3516h-6.4102v7.8281c0 2.1523-1.7539 3.9023-3.9297 3.9023-2.1523 0-3.9258-1.7539-3.9258-3.9023v-7.8281h-1.5312v4.8359c0 2.1523-1.7734 3.9258-3.9297 3.9258-2.1484 0-3.9258-1.7734-3.9258-3.9258v-4.8359h-2.0625c-0.82031 0-1.5078-0.66406-1.5078-1.4883 0-0.81641 0.6875-1.5078 1.5078-1.5078h2.0625l0.003907-4.8359c0-2.1523 1.7734-3.9023 3.9258-3.9023s3.9297 1.7539 3.9297 3.9023v4.8359h1.5312v-7.8086c0-2.1484 1.7734-3.9297 3.9258-3.9297 2.1758 0 3.9297 1.7773 3.9297 3.9297v7.8086h5.8125l-0.003906-15.527c0-5.7266 4.6797-10.406 10.402-10.406h16.191c5.7266 0 10.406 4.6836 10.406 10.406v15.527h5.8125v-7.8086c0-2.1484 1.7539-3.9297 3.9258-3.9297 2.1523 0 3.9258 1.7773 3.9258 3.9297v7.8086h1.5312v-4.8359c0-2.1523 1.7734-3.9023 3.9297-3.9023 2.1484 0 3.9258 1.7539 3.9258 3.9023v4.8359h2.0625c0.82031 0 1.5078 0.69141 1.5078 1.5078zm-24.984-135.91c-0.59766 1.9922-2.6602 2.8164-3.9727 1.5078l-1.9961-1.9766-3.5039 3.5039c0.39844 0.44531 0.79688 0.91016 1.1953 1.3789 8.1172 9.6055 11.203 21.871 8.2305 34.453 0.62109 0.10938 1.2227 0.39844 1.7539 0.82031 2.9727 2.4414 2.8164 7.3438 0.19922 9.9844-2.7305 2.7031-7.1445 2.7305-9.8516-0.023438-1.1094-1.1523-1.7305-2.5703-1.8867-4.0781l-39.156-0.13281-0.17578 2.2422c-0.023437 0.375-0.19922 0.73047-0.44531 0.97266l-7.543 7.543c-1.0195 1.0195-2.75 0.24219-2.6406-1.1953l0.35547-4.1484-4.0391 0.3125c-1.5312 0.24219-2.4414-1.707-1.2227-2.7031l7.3438-7.3203c0.26562-0.3125 0.64453-0.53125 1.0625-0.57422l2.2656-0.17969-0.15625-39.152c-1.4844-0.15625-2.9297-0.75781-4.082-1.8867-2.7539-2.6875-2.7305-7.1211-0.023438-9.8281 2.6602-2.6641 7.543-2.7969 10.004 0.17578 0.42188 0.53125 0.6875 1.1328 0.82031 1.7539 11.98-2.8164 25.047 0.28906 34.449 8.2305 0.44531 0.39844 0.91016 0.79688 1.3555 1.2188l3.5273-3.5273-2.0039-2.0117c-1.2188-1.2422-0.55469-3.1484 1.2188-3.8828 2.7734-0.77734 5.5039-1.5312 8.2969-2.3086 1.9531-0.53516 3.3711 0.88672 2.8398 2.8359-0.75391 2.7148-1.4414 5.332-2.2188 7.9961zm1.8867-21.988c6.1211 0 11.07 4.9727 11.07 11.07 0 5.6797-4.2812 10.359-9.7852 11.004 0.6875-2.4219 1.3086-4.8398 1.9961-7.2539 1.1523-4.2383-2.375-7.7891-6.6133-6.6094-0.88672 0.24219-7.4062 2.1484-7.7188 2.1289 0.37891-5.7695 5.1953-10.34 11.051-10.34zm-16.039 16.926c-0.66406-1.8164-1.043-3.793-1.043-5.8555 0-9.4297 7.6523-17.062 17.082-17.062 9.4297 0 17.082 7.6328 17.082 17.062s-7.6523 17.082-17.082 17.082c-1.9766 0-3.8828-0.33203-5.6602-0.95312l-0.13281-0.17969c2.0195 0.57422 4.1914-0.22266 5.6133-1.8633 7.8555 0.046874 14.242-6.1875 14.242-14.086 0-18.504-28.129-18.504-28.129 0 0 0.33203 0 0.66406 0.023438 0.95312-1.3984 1.4219-2.0195 3.4141-1.4648 5.2773-0.17578-0.12891-0.35547-0.23828-0.53125-0.375zm12.781 13.977c1.0625 0.15234 2.1484 0.26562 3.2617 0.26562 11.094 0 20.074-9.0078 20.074-20.098 0-11.094-8.9844-20.078-20.074-20.078-11.094 0-20.074 8.9844-20.074 20.078 0 1.2188 0.10938 2.418 0.30859 3.5703-1.0625-0.57812-2.1289-1.1094-3.2383-1.6016-0.046876-0.64453-0.089844-1.3086-0.089844-1.9727 0-12.734 10.34-23.07 23.094-23.07 12.758 0 23.094 10.34 23.094 23.07 0 12.754-10.34 23.094-23.094 23.094-0.53125 0-1.0664-0.023438-1.5977-0.046875-0.51563-1.1016-1.0664-2.168-1.6641-3.2109zm-15.91-2.418c-8.8945-8.0547-21.738-10.402-32.941-5.8789-0.28906 0.13281-0.59766 0.22266-0.88672 0.3125l0.15234 39.285zm7.7461 36.004c0.089844-0.28516 0.19922-0.57422 0.30859-0.86328 4.5234-11.227 2.1953-24.066-5.8789-32.965l-33.676 33.695zm-232.92 13.68c11.07-6.1875 18.523-18.012 18.523-31.59 0-9.4062-3.5703-17.969-9.4492-24.402l4.0352-11.934c1.6211-4.8125 1.5977-9.9375-1.3086-14.285-3.6367-5.4102-10.383-7.7422-16.684-7.7422h-25.598c-6.3008 0-13.047 2.3281-16.684 7.7422-2.8828 4.3477-2.9297 9.4727-1.3086 14.285l4.0352 11.934c-5.8555 6.4375-9.4492 14.996-9.4492 24.402 0 13.578 7.4766 25.402 18.523 31.59 0.24219 0.17969 0.53125 0.26562 0.86328 0.26562h33.652c0.3125-0.003906 0.60156-0.089843 0.84766-0.26562zm-18.461-29.973-3.5938-7.0977c-1.0195-2.043-2.1289-2.5742-3.4609-0.37891l-2.8203 4.6367h-5.7656c-3.3945-5.4805-0.17969-12.113 5.7227-13.934 3.2617-1.0195 6.3906-0.019531 8.8086 2.2656 1.0664 1.0195 2.707 1.0195 3.7734 0 2.4414-2.2852 5.5469-3.2812 8.8086-2.2656 5.9023 1.8203 9.1172 8.4531 5.7227 13.934h-5.5039l-4.2578-8.1445c-1.2188-2.3281-2.5508-1.4219-3.3281 0.57812zm14.512 0.22266-13.602 13.621c-0.13281 0.11328-0.13281 0.11328-0.24219 0-4.5469-4.5469-9.0938-9.0703-13.621-13.621h3.8398c0.62109 0 1.0859-0.24219 1.418-0.75391l2.1758-3.5977 4.0391 8.0312c0.97656 1.9062 2.4844 1.8867 3.2617-0.13281l4.2812-10.777 3.3477 6.3633c0.24609 0.53125 0.77734 0.86328 1.375 0.86328h3.7266zm-32.945-32.543-2.8594-8.5859c-0.6875-2.0391-0.95313-4.4375 0.30859-6.3203 1.8398-2.6875 5.9023-3.5703 8.9648-3.5703h25.598c3.0625 0 7.1211 0.88672 8.9648 3.5703 1.2852 1.8867 1.0195 4.2773 0.33203 6.3203l-2.8828 8.5859c-5.5703-3.4844-12.16-5.5039-19.215-5.5039s-13.645 2.0195-19.211 5.5039zm7.6328 12.598c-4.5469 1.3984-8.0742 5.0625-9.0312 9.7383-0.50781 2.4414-0.24219 4.8594 0.73047 7.1445h-5.8125c-2.0195 0-2.0195 3.0586 0 3.0586h7.6992c0.28906 0.33594 0.57813 0.64453 0.88672 0.95312 4.9258 4.9453 9.8711 9.8945 14.82 14.82 1.332 1.3281 3.2617 1.3281 4.5703 0 4.9453-4.9297 9.8945-9.8711 14.844-14.82 0.28906-0.3125 0.59766-0.62109 0.86328-0.95312h7.6992c2.0195 0 2.0195-3.0586 0-3.0586h-5.8125c0.97656-2.2852 1.2422-4.7031 0.73047-7.1445-0.95312-4.6797-4.4805-8.3398-9.0078-9.7383-4.2148-1.2852-8.3633-0.13281-11.602 2.7969-3.2148-2.9297-7.3672-4.082-11.578-2.7969zm-101.39 32.102c-5.6367 0-11.625-3.8125-11.625-9.9375 0-6.1211 5.9883-9.9375 11.625-9.9375 5.6133 0 11.605 3.8125 11.605 9.9375 0 6.1211-5.9922 9.9375-11.605 9.9375zm-42.973-53.508 7.0742-12.289v-5.0352c0-0.84375 0.6875-1.5312 1.5312-1.5312s1.5312 0.6875 1.5312 1.5312v5.0586l7.0547 12.27h0.37891c5.5234 0 10.051 4.4805 10.141 10.008h-38.203c0.066407-5.5234 4.5938-10.008 10.141-10.008zm27.711 13.066v2.418h-38.203v-2.418zm0 5.4766v34.297h-38.203v-34.297zm0 37.359v2.4219h-38.203v-2.4219zm0 5.457c-0.089844 5.5195-4.6133 10.004-10.141 10.004h-17.926c-5.5469 0-10.07-4.4805-10.141-10.004zm-17.57-67.461v6.1016h3.5273zm-3.0625 6.1016v-6.1016l-3.5273 6.1016zm54.684 22.738c1.1328-4.3945 1.3086-8.7852-0.86328-12.938-1.8633-3.5078-5.1016-6.3867-7.9844-9.0508 1.2422-0.73047 2.4648-1.4414 3.6172-2.3086 4.9258-3.7695 3.0352-9.7617-2.6172-10.828-2.8828-0.55469-5.5664 0.66797-7.2305 3.0625-2.2383 3.2188-0.86328 6.8125 1.4219 9.5195-0.59766 0.42188-1.1758 0.84375-1.7305 1.3086-3.1719 2.6406-4.9023 5.8125-5.0586 9.7188h-5.2812c-0.53125 0-0.97656 0.44141-0.97656 0.97656v6.3906c0 0.53125 0.44141 0.97656 0.97656 0.97656h13.312c0.53125 0 0.97656-0.44141 0.97656-0.97656v-1.6641h-5.9883c-0.84375 0-1.5273-0.6875-1.5273-1.5312 0-0.83984 0.6875-1.5273 1.5273-1.5273h5.9883v-1.6641c0-0.53125-0.44141-0.97656-0.97656-0.97656h-5.0352c0.15625-3.0195 1.5078-5.3516 3.9922-7.4102 0.62109-0.51172 1.2852-0.99609 1.9492-1.4414 7.1211 6.7227 11.246 9.8281 8.4062 20.367h-2.0195c2.3516 2.6133 4.1055 5.2148 5.7031 8.3398h7.2539c0.55469 0 0.97656-0.44141 0.97656-0.97656v-1.6445h-5.9883c-0.84375 0-1.5312-0.6875-1.5312-1.5547 0-0.84375 0.6875-1.5273 1.5312-1.5273h5.9883v-1.6641c0-0.53125-0.42188-0.97656-0.97656-0.97656l-7.8359 0.003906zm-4.4336 23.562c2.1953 0.44141 4.4805 0.51172 6.2344-1.1328 5.5234 0.19922 11.27 3.8828 11.27 9.918 0 6.1211-5.9883 9.9609-11.602 9.9609-5.6367 0-11.625-3.8359-11.625-9.9609 0-0.35547 0.019531-0.71094 0.066406-1.0859 2.8594-1.8906 4.7891-4.3516 5.6562-7.6992zm6.3867-12.141h5.8789c0.6875 0 1.2422-0.15234 1.8398-0.44141 3.0625 1.9102 5.4141 5.0352 7.2305 8.0977 1.4414 2.4375 2.707 5.1484 3.3477 7.9219 0.89062 3.9453 0.28906 6.0117-4.1016 4.9883-0.33594-7.1445-6.168-11.672-12.867-12.559 0.37891-2.8164-0.35156-5.3867-1.3281-8.0078zm-20.742-3.6133c-4.4805 0-8.1406 1.5977-11.312 4.7031 0.30859-4.6562 1.3086-8.4961 3.2617-12.758 0.37891 0.089844 0.71094 0.15625 1.1094 0.15625h13.312c0.6875 0 1.2422-0.15625 1.8438-0.44531 3.0625 1.8867 5.4141 5.0352 7.2305 8.0977 1.4414 2.4414 2.707 5.1445 3.3477 7.9219 0.28906 1.2422 0.64453 3.6406-0.30859 4.6797-0.84375 0.91016-2.7305 0.55859-3.793 0.3125-0.35937-7.6992-7.3906-12.668-14.691-12.668zm3.0625 17.68c-1.6641 1.2422 0.10938 3.75 1.8398 2.4844 4.0586-2.9727 4.5273-4.9727 3.5703-9.6953-0.46875-2.2188-3.4609-1.4844-3.0391 0.55859 0.73438 3.5469 0.75781 4.3672-2.3711 6.6523zm20.254 11.535c-1.6641 1.2227 0.10938 3.7539 1.8398 2.4688 4.0625-2.9727 4.5234-4.9727 3.5703-9.6953-0.46875-2.1953-3.4609-1.4688-3.0391 0.55469 0.73438 3.5469 0.75391 4.3633-2.3711 6.6719zm-17.148-67.371c1-1.4219 2.4844-2.1523 4.2148-1.8203 3.1484 0.59766 4.1484 3.3516 1.332 5.4805-1.2422 0.97656-2.6641 1.7305-4.0156 2.5273-1.4883-1.6172-2.9961-4.0547-1.5312-6.1875zm438.46-251.25h12.844c5.2773 0 9.6055 4.3281 9.6055 9.6289v3.8398h1.6875c0.99609 0 1.7969 0.81641 1.7969 1.7969v8.0547c0 0.99609-0.80078 1.7969-1.7969 1.7969h-1.6875v39.977h1.6875c0.99609 0 1.7969 0.82031 1.7969 1.7969v8.0742c0 0.98047-0.80078 1.7734-1.7969 1.7734h-1.6875v3.8555c0 5.3047-4.3242 9.6328-9.6055 9.6328h-12.844c-5.3008 0-9.6289-4.3281-9.6289-9.6328v-3.8555h-1.6836c-0.97656 0-1.7734-0.79688-1.7734-1.7734v-8.0742c0-0.97656 0.79688-1.7969 1.7734-1.7969h1.6836v-39.977h-1.6836c-0.97656 0-1.7734-0.80078-1.7734-1.7969v-8.0547c0-0.98047 0.79688-1.7969 1.7734-1.7969h1.6836v-3.8398c0-5.3008 4.3281-9.6289 9.6289-9.6289zm43.832 0h12.824c5.3047 0 9.6289 4.3281 9.6289 9.6289v3.8398h1.6836c0.97656 0 1.7969 0.81641 1.7969 1.7969v8.0547c0 0.99609-0.82031 1.7969-1.7969 1.7969h-1.6836v39.977h1.6836c0.97656 0 1.7969 0.82031 1.7969 1.7969v8.0742c0 0.98047-0.82031 1.7734-1.7969 1.7734h-1.6836v3.8555c0 5.3047-4.3242 9.6328-9.6289 9.6328h-12.824c-5.3008 0-9.6289-4.3281-9.6289-9.6328v-3.8555h-1.6875c-0.99609 0-1.7969-0.79688-1.7969-1.7734v-8.0742c0-0.97656 0.80078-1.7969 1.7969-1.7969h1.6875v-39.977h-1.6875c-0.99609 0-1.7969-0.80078-1.7969-1.7969v-8.0547c0-0.98047 0.80078-1.7969 1.7969-1.7969h1.6875v-3.8398c0.003907-5.3008 4.3281-9.6289 9.6289-9.6289zm0.77734 36.453c0.84375 0 1.5312-0.66406 1.5312-1.5312 0-0.84375-0.6875-1.5312-1.5312-1.5312-0.86328 0-1.5312 0.6875-1.5312 1.5312 0 0.86328 0.66797 1.5312 1.5312 1.5312zm11.273 0c0.84375 0 1.5273-0.66406 1.5273-1.5312 0-0.84375-0.6875-1.5312-1.5273-1.5312-0.84375 0-1.5312 0.6875-1.5312 1.5312 0 0.86328 0.6875 1.5312 1.5312 1.5312zm-11.273-8.543c0.84375 0 1.5312-0.66406 1.5312-1.5312 0-0.84375-0.6875-1.5273-1.5312-1.5273-0.86328 0-1.5312 0.6875-1.5312 1.5273 0 0.86719 0.66797 1.5312 1.5312 1.5312zm11.273 0c0.84375 0 1.5273-0.66406 1.5273-1.5312 0-0.84375-0.6875-1.5273-1.5273-1.5273-0.84375 0-1.5312 0.6875-1.5312 1.5273 0 0.86719 0.6875 1.5312 1.5312 1.5312zm-11.273 37.445c0.84375 0 1.5312-0.6875 1.5312-1.5312s-0.6875-1.5312-1.5312-1.5312c-0.86328 0-1.5312 0.6875-1.5312 1.5312 0.003907 0.84375 0.66797 1.5312 1.5312 1.5312zm11.273 0c0.84375 0 1.5273-0.6875 1.5273-1.5312s-0.6875-1.5312-1.5273-1.5312c-0.84375 0-1.5312 0.6875-1.5312 1.5312s0.6875 1.5312 1.5312 1.5312zm-11.273-8.5391c0.84375 0 1.5312-0.6875 1.5312-1.5312s-0.6875-1.5273-1.5312-1.5273c-0.86328 0-1.5312 0.6875-1.5312 1.5273 0.003907 0.84375 0.66797 1.5312 1.5312 1.5312zm11.273 0c0.84375 0 1.5273-0.6875 1.5273-1.5312s-0.6875-1.5273-1.5273-1.5273c-0.84375 0-1.5312 0.6875-1.5312 1.5273 0 0.84375 0.6875 1.5312 1.5312 1.5312zm-18.613 12.578h25.953v3.0586h-25.953zm0-51.621h25.953v3.0586h-25.953zm-43.836 51.621h8.5195v-2.5117c0-0.97656 0.80078-1.7969 1.7969-1.7969h5.3477c0.97656 0 1.7969 0.82031 1.7969 1.7969v2.5117h8.4961v3.0586h-8.4961v2.5078c0 0.98047-0.82031 1.7734-1.7969 1.7734h-5.3477c-1 0-1.7969-0.79688-1.7969-1.7734v-2.5078h-8.5195zm14.395 0h-2.8164v-1.2422h2.8164zm-2.8164 3.0586h2.8164v1.2227h-2.8164zm-11.578-54.68h8.5195v-2.5078c0-0.98047 0.80078-1.7969 1.7969-1.7969h5.3477c0.97656 0 1.7969 0.81641 1.7969 1.7969v2.5078h8.4961v3.0586h-8.4961v2.4844c0 0.99609-0.82031 1.7969-1.7969 1.7969h-5.3477c-1 0-1.7969-0.80078-1.7969-1.7969v-2.4844h-8.5195zm14.395 0h-2.8164v-1.2422h2.8164zm-2.8164 3.0586h2.8164v1.2266h-2.8164zm-113.79-12.777h-16.281c-6.457 0-11.715 5.2812-11.715 11.734v58.699c0 6.4531 5.2578 11.734 11.715 11.734h66.773c6.457 0 11.734-5.2812 11.734-11.734v-58.699c0-6.4531-5.2773-11.734-11.734-11.734h-16.281c-4.2812-5.125-10.402-8.0547-17.105-8.0547-6.6797 0-12.828 2.9297-17.105 8.0547zm-15.332 6.0781h11.777c0.39844-1.043 0.88672-2.043 1.4414-3.0195h-14.176c-4.7695 0-8.6758 3.9023-8.6758 8.6758v58.699c0 4.7695 3.9062 8.6719 8.6758 8.6719h66.773c4.7695 0 8.6758-3.9023 8.6758-8.6719v-58.699c0-4.7695-3.9062-8.6758-8.6758-8.6758l-14.172 0.003906c0.55469 0.97656 1.043 1.9766 1.4648 3.0195h11.777c3.2812 0 5.9883 2.7031 5.9883 5.9883v58.031c0 3.2812-2.707 5.9883-5.9883 5.9883h-64.887c-3.3047 0-5.9883-2.707-5.9883-5.9883v-58.031c0-3.2852 2.6836-5.9922 5.9883-5.9922zm34.254-1.7305 1.2852-4.8359c0.53125-1.9531-2.418-2.7539-2.9492-0.80078l-1.4844 5.5234c-2.707 0.53125-4.793 2.6172-5.3672 5.3008h-11.867c2.1289-8.5391 9.7617-14.551 18.566-14.551 8.8047 0 16.438 6.0117 18.566 14.551h-11.867c-0.53516-2.5234-2.3984-4.4766-4.8828-5.1875zm1.707 5.1914h-7.0547c0.62109-1.4414 1.9531-2.3711 3.5273-2.3711 1.5977-0.003906 2.9062 0.92578 3.5273 2.3711zm-28.527 9.6953c-3.9492 0-7.1914 3.2344-7.1914 7.2109v35.117c0 3.9727 3.2422 7.2109 7.1914 7.2109h50.004c3.9727 0 7.2109-3.2344 7.2109-7.2109v-35.117c0-3.9727-3.2617-7.2109-7.2109-7.2109zm0 3.0586h50.004c2.2852 0 4.1484 1.8633 4.1484 4.1484v35.117c0 2.2852-1.8633 4.1445-4.1484 4.1445h-50.004c-2.2656 0-4.1484-1.8594-4.1484-4.1445v-35.117c0-2.2812 1.8633-4.1484 4.1484-4.1484zm3.8359 13.113h13.176c0.84375 0 1.5312-0.6875 1.5312-1.5273 0-0.84375-0.6875-1.5312-1.5312-1.5312h-13.176c-0.84375 0-1.5312 0.6875-1.5312 1.5312 0.003906 0.83984 0.6875 1.5273 1.5312 1.5273zm0 6.7422h13.176c0.84375 0 1.5312-0.6875 1.5312-1.5273 0-0.84766-0.6875-1.5312-1.5312-1.5312h-13.176c-0.84375 0-1.5312 0.6875-1.5312 1.5312 0.003906 0.83984 0.6875 1.5273 1.5312 1.5273zm0 6.7461h13.176c0.84375 0 1.5312-0.6875 1.5312-1.5312 0-0.82031-0.6875-1.5078-1.5312-1.5078h-13.176c-0.84375 0-1.5312 0.6875-1.5312 1.5078 0.003906 0.84375 0.6875 1.5312 1.5312 1.5312zm0 6.7656h13.176c0.84375 0 1.5312-0.6875 1.5312-1.5312s-0.6875-1.5273-1.5312-1.5273h-13.176c-0.84375 0-1.5312 0.6875-1.5312 1.5273 0.003906 0.84375 0.6875 1.5312 1.5312 1.5312zm29.152-20.254h13.18c0.84375 0 1.5312-0.6875 1.5312-1.5273 0-0.84375-0.6875-1.5312-1.5312-1.5312h-13.18c-0.84375 0-1.5312 0.6875-1.5312 1.5312 0 0.83984 0.6875 1.5273 1.5312 1.5273zm0 6.7422h13.18c0.84375 0 1.5312-0.6875 1.5312-1.5273 0-0.84766-0.6875-1.5312-1.5312-1.5312h-13.18c-0.84375 0-1.5312 0.6875-1.5312 1.5312 0 0.83984 0.6875 1.5273 1.5312 1.5273zm0 6.7461h13.18c0.84375 0 1.5312-0.6875 1.5312-1.5312 0-0.82031-0.6875-1.5078-1.5312-1.5078h-13.18c-0.84375 0-1.5312 0.6875-1.5312 1.5078 0 0.84375 0.6875 1.5312 1.5312 1.5312zm0 6.7656h13.18c0.84375 0 1.5312-0.6875 1.5312-1.5312s-0.6875-1.5273-1.5312-1.5273h-13.18c-0.84375 0-1.5312 0.6875-1.5312 1.5273 0 0.84375 0.6875 1.5312 1.5312 1.5312zm-123.52-31.074 3.2812-3.2812-3.7695-5.457c-5.2578-0.62109-3.9727-0.48828-7.2773-0.88672 1.8867 3.4375 3.5938 6.6797 5.3242 10.16 2.0391 3.4609 2.9062 7.1211 1.043 10.867-3.0625 6.1445-10.184 8.0742-4.5469 15.09l15.375-15.355c1.4844-1.3555 3.5508 0.93359 2.0625 2.2656l-15.484 15.484c1.3984 1.8633 2.6172 4.0586 3.0391 6.2344l19.789-19.766c1.4414-1.4219 3.5938 0.82031 2.1055 2.2188l-36.047 36.027c-4.7461 4.7461-12.18 5.2578-17.527 1.5312-1.7305-1.0859 0-3.7734 1.7305-2.5273 4.1484 2.9258 9.9375 2.5273 13.645-1.1523l4.9922-5.0156c-2.3516-0.37891-4.3711-1.8398-5.0586-4.2148l-4.9688 4.9688c-4.7461 4.7461-12.203 5.2617-17.523 1.5312-1.7305-1.0898-0.042969-3.7695 1.75-2.5039 4.1484 2.8828 9.9375 2.4805 13.621-1.1992l0.35156-0.35547c-2.7969-0.48828-4.9219-2.4648-5.1914-5.3477-0.22266-2.2188 0.66797-4.4805 1.7305-6.3672 0.71094-1.2383 0.71094-1.5742-0.066406-2.3281-7.1445-7.0547-3.8164-19.145 2.8398-25.645-1.0625-2.2852-3.0625-6.5898-5.0117-10.848 7.3203-0.95312 12.977-7.2305 12.977-14.816 0-0.3125 0-0.625-0.023437-0.91016l18.125 2.1484c0.26562 0.023437 0.51172 0.13672 0.71094 0.28906l8.5625-8.5625-2.3516-2.3516c-0.57812-0.57422-0.57812-1.5508 0-2.1289 0.57422-0.57422 1.5273-0.57422 2.1289 0l2.3516 2.3516 2.3086-2.3086c1.4219-1.4219 3.5508 0.71094 2.1289 2.1289l-2.3086 2.3086 2.3086 2.3281c0.59766 0.57813 0.59766 1.5273 0 2.1055-0.57422 0.60156-1.5312 0.60156-2.1289 0l-2.3086-2.3086-8.875 8.8711 5.2578 7.6523 18.656-18.656-2.3516-2.3516c-0.57422-0.57422-0.57422-1.5508 0-2.1289 0.60156-0.57422 1.5547-0.57422 2.1289 0l2.3516 2.3516 2.3281-2.3086c1.3945-1.4219 3.5273 0.71094 2.1055 2.1289l-2.3086 2.3086 2.3086 2.3281c0.59766 0.57812 0.59766 1.5273 0 2.1055-0.57422 0.60156-1.5312 0.60156-2.1055 0l-2.3281-2.3086-19.055 19.059 0.42188 0.60156c1.2656 1.8164 0.80078 4.3477-1.0195 5.5898-1.5977 1.1055-3.7695 0.91016-5.1445-0.44141l-2.9297 2.9297c-1.3984 1.3945-3.5234-0.73047-2.1289-2.1328zm-31.746-32.633c6.5898 0 11.934 5.3516 11.934 11.938 0 6.5898-5.3477 11.934-11.934 11.934-6.5898 0-11.934-5.3477-11.934-11.934 0-6.5859 5.3477-11.938 11.934-11.938zm-226.5 49.047v-40.223c0-1.1797 1.2422-1.8633 2.2188-1.375l22.297 8.9844c1.2852 0.51172 1.2852 2.418 0 2.9297l-21.453 8.6328v21.051c2.8164 0.26562 4.9062 1.2188 4.9062 2.3516 0 1.332-2.8867 2.418-6.4336 2.418-3.5508 0-6.4102-1.0859-6.4102-2.418-0.007813-1.1328 2.0781-2.0859 4.875-2.3516zm35.113-6.2578c2.375 0 4.2812 1.9062 4.2812 4.2812 0 2.3516-1.9062 4.2578-4.2812 4.2578-2.3516 0-4.2812-1.9023-4.2812-4.2578 0.003906-2.375 1.9336-4.2812 4.2812-4.2812zm-22.938-7.6953c24.801-2.4648 45.609 2.6602 46.496 11.488 0.59766 6.1211-8.5391 12.398-22.496 16.504-4.5938 1.3555-1.7734 3.5977 0.22266 5.3477 1.3984 1.2227 2.1758 2.5508 2.1758 3.9453 0 5.8125-13.246 10.539-29.57 10.539-16.352 0-29.594-4.7266-29.594-10.539 0-1.0625 0.46484-2.1289 1.3086-3.1055 1.7734-2.0625 1.1523-3.7539-1.8867-5.0352-3.9922-1.418-9.4961-4.1914-9.9375-8.6953-0.6875-6.8984 11.027-14 28.039-17.949v8.9648c-2.4414 0.68359-4.8359 2.1055-4.8359 4.8359 0 4.4141 6.1016 5.4141 9.4297 5.4141 3.3477 0 9.4492-1 9.4492-5.4141 0-2.7305-2.3945-4.1523-4.8594-4.8359v-10.719c1.9805-0.28516 4.0195-0.52734 6.0586-0.74609zm24.473 19.141c3.3281-0.70703 5.8125-3.6406 5.8125-7.1641 0-4.0625-3.2812-7.3438-7.3438-7.3438-4.0586 0-7.3438 3.2812-7.3438 7.3438 0 3.5234 2.5078 6.457 5.8125 7.1641v3.1055c0 0.84375 0.6875 1.5312 1.5273 1.5312 0.84375 0 1.5312-0.6875 1.5312-1.5312zm337.14-84.02c-21.207 0-38.535-17.348-38.535-38.531v-25.555c0-0.39844 0.15625-0.79688 0.44531-1.0859l15.062-15.062c0.46875-0.44531 0.77344-0.46484 1.3945-0.46484h43.484c0.35547 0 0.77734 0.089844 1.043 0.35547l15.215 15.195c0.26562 0.26562 0.42578 0.64453 0.42578 1.0664v25.555c0 21.18-17.328 38.527-38.535 38.527zm-14.043-83.699v-3.3945c0-1.7109 1.4219-3.1289 3.1289-3.1289h21.832c1.7031 0 3.125 1.418 3.125 3.1289v3.3945zm40.82 2.9727 2.4609-2.4375c1.1992-1.2227 3.2148-1.2227 4.4141 0l7.1406 7.2305c1.2227 1.2422 1.2227 3.2148 0 4.4375l-2.3945 2.3945zm-65.18 11.625-2.3945-2.3945c-1.2188-1.2188-1.2188-3.1914 0-4.4375l7.1406-7.2305c1.1992-1.2227 3.1953-1.2227 4.418 0l2.4414 2.4375zm19.965 45.102h9.3203c1.1055 0 1.9961 0.91016 1.9961 1.9961v5.9883c0 1.1094-0.89062 1.9961-1.9961 1.9961h-9.3203c-1.0859 0-1.9961-0.88672-1.9961-1.9961v-5.9883c0-1.0859 0.91016-1.9961 1.9961-1.9961zm27.555 0h9.2969c1.1055 0 1.9922 0.91016 1.9922 1.9961v5.9883c0 1.1094-0.88672 1.9961-1.9922 1.9961h-9.2969c-1.1055 0-1.9961-0.88672-1.9961-1.9961v-5.9883c0-1.0859 0.89062-1.9961 1.9961-1.9961zm-36.602-40.266h54.973c1.8867 0 3.4141 1.5312 3.4141 3.418v27.777c0 1.8867-1.5312 3.4375-3.4141 3.4375h-54.973c-1.8867 0-3.4375-1.5547-3.4375-3.4375v-27.777c0-1.8867 1.5508-3.418 3.4375-3.418zm-296.3 45.922c1.9766-20.676 0.18359-32.68-14.75-47.297-4.2578 1.3086-8.0742 3.3281-11.289 6.2344 17.281 13.863 20.809 31.102 14.645 51.867 4.3867-2.9062 8.2461-6.5664 11.395-10.805zm-34.387-27.266c13.289 13.887 10.871 30.125 2.1953 45.41 5.8789-0.53125 11.445-2.1953 16.457-4.7891 7.0117-20.719 5.1719-37.711-12.664-52.023-2.5703 3.0195-4.6133 6.7656-5.9883 11.402zm-1.7734 45.59c2.4844-4.1055 4.5273-8.2734 5.8984-12.469-5.6094 1.5312-11.293 2.3945-17.125 1.9961-9.7383-0.6875-18.656-5.0156-26.801-10.293 8.0547 12.469 22.074 20.762 37.938 20.762zm-41.441-27.152c8.9844 6.4102 19.234 12.559 30.461 13.355 6.3438 0.44531 11.867-0.75391 17.922-2.4375 0.95312-4.3281 1.1328-8.6523 0.24609-12.891-20.699 8.0312-37.402 2.4648-52.312-13.312 0.3125 5.4102 1.5977 10.559 3.6836 15.285zm-3.7031-20.277c14.484 16.461 30.039 23.383 51.426 15.062-1.332-3.7266-3.5508-7.3867-6.9023-10.895-18.656 4.5703-31.504-5.6367-40.395-20.766-2.375 5.1055-3.8164 10.699-4.1289 16.598zm5.9688-20.121c2.3047 4.1914 4.8984 8.0312 7.8281 11.312 4.5039-17.148 13.531-25.934 29.219-33.941-15.793 0.71094-29.57 9.6523-37.047 22.629zm44.234-22.383c-18.926 8.6523-28.441 16.195-33.676 36.473 3.2812 3.0156 6.9414 5.3242 11.051 6.6562 3.3906-21.895 16.551-33.59 37.621-38.625-4.5938-2.332-9.6523-3.8828-14.996-4.5039zm19.32 6.9883c-21.473 4.2812-35.203 14.355-38.684 36.98 3.9023 0.73047 8.1602 0.62109 12.863-0.53125 5.3906-18.41 20.633-24.445 38.18-24.602-3.3281-4.6836-7.5234-8.7227-12.359-11.848zm14.508 15.195c-4.7695-0.089844-9.4062 0.24609-13.711 1.1328 12.574 12.445 15.684 24.645 14.773 42.215 3.2383-6.2148 5.0781-13.266 5.0781-20.699 0.007813-7.9844-2.1016-15.75-6.1406-22.648zm110.59-5.8359c3.8398 5.2148 11.023 12.754 11.023 19.723 0 16.883-22.691 16.883-22.691 0 0-6.9648 7.1641-14.508 11.004-19.723 0.17578-0.24219 0.48828-0.24219 0.66406 0zm-58.988-16.613h10.625v6.2344h-10.625v-6.2344zm-11.094 25.199v-4.3945c3.5977-3.75 7.3438-7.5195 10.824-11.336h11.16c3.4844 3.8125 7.2305 7.5859 10.824 11.336v5.9023c-12.176 7.2109-21.383-6.5859-32.809-1.5078zm32.812 5.3906v13.555c0 1.418-1.3281 2.5703-2.9492 2.5703h-26.91c-1.6211 0-2.9492-1.1523-2.9492-2.5703v-15.039c9.8711-6.125 19.699 7.6289 32.809 1.4844zm0 57.059c0 1.4219-1.3281 2.5742-2.9492 2.5742h-26.91c-1.6211 0-2.9492-1.1523-2.9492-2.5742v-35.117c0-1.4219 1.332-2.5742 2.9492-2.5742h26.91c1.6211 0 2.9492 1.1523 2.9492 2.5742zm12.113-65.602c2.5117 3.418 7.2109 8.3438 7.2109 12.91 0 11.07-14.887 11.07-14.887 0 0-4.5703 4.7031-9.4922 7.2344-12.91 0.10547-0.15234 0.30859-0.15234 0.44141 0zm11.359 24.961c3.1758 4.3047 9.1172 10.539 9.1172 16.305 0 13.977-18.793 13.977-18.793 0 0-5.7695 5.9453-12 9.1211-16.305 0.15625-0.22266 0.39844-0.22266 0.55469 0zm70.727-46.246h68.438c1.0391 0 1.8867 0.84375 1.8867 1.8633v5.2344c0 1.0195-0.84766 1.8633-1.8867 1.8633h-1.3516v18.613h8.6758c0.82031 0 1.5078 0.6875 1.5078 1.5078s-0.6875 1.5078-1.5078 1.5078h-20.344c-0.82031 0-1.5117-0.6875-1.5117-1.5078s0.6875-1.5078 1.5117-1.5078h8.6758v-18.613h-59.742v25.645h5.8555c3.1055 0 5.6797 2.5508 5.6797 5.6562v3.9688l-26.07 0.007813v-3.9688c0-3.1055 2.5508-5.6562 5.6797-5.6562h5.8555v-25.645h-1.3555c-1.043 0-1.8867-0.84375-1.8867-1.8633v-5.2344c0.003906-1.0273 0.84766-1.8711 1.8906-1.8711zm15.883 47.254v6.5898h-26.066v-6.5898zm0 9.582v6.5898h-26.066v-6.5898zm0 9.5859v3.9727c0 3.1289-2.5703 5.6797-5.6797 5.6797l-14.703-0.003906c-3.1328 0-5.6797-2.5508-5.6797-5.6797v-3.9727zm24.781-54.398v46.656h-12.914v-46.656h12.914zm24.758 49.719c4.0352 0 7.3398 3.2852 7.3398 7.3203v18.105c0 0.84375-0.6875 1.5273-1.5273 1.5273h-51.535c-0.84375 0-1.5273-0.71094-1.5273-1.5547v-18.078c0-4.0352 3.3047-7.3203 7.3438-7.3203h39.906zm-262.74 229.14c5.8555-3.2383 9.8516-9.4727 9.8516-16.637 0-4.3945-1.5078-8.4297-3.9922-11.645l3.3281-9.8242c2.707-7.9688-3.2383-13.535-10.961-13.535h-14.73c-7.7188 0-13.664 5.5664-10.961 13.535l3.3281 9.8242c-2.4844 3.2188-3.9727 7.2539-3.9727 11.645 0 7.1641 3.9727 13.422 9.8516 16.637 0.24609 0.15234 0.53125 0.26953 0.84375 0.26953h16.551c0.30859 0 0.61719-0.11328 0.86328-0.26953zm12.223 4.1953h3.7031c1.3125 0 2.375 1.0898 2.375 2.3945v29.594c0 1.3125-1.0625 2.3945-2.375 2.3945h-3.7031c-1.3086 0-2.375-1.0859-2.375-2.3945v-29.594c0-1.3047 1.0703-2.3945 2.375-2.3945zm-38.91 15.172v4.0352h35.094v-4.0352zm-3.8164-15.172h-3.7031c-1.3086 0-2.3711 1.0898-2.3711 2.3945v29.594c0 1.3125 1.0625 2.3945 2.3711 2.3945h3.7031c1.3086 0 2.3711-1.0859 2.3711-2.3945v-29.594c0.003907-1.3047-1.0625-2.3945-2.3711-2.3945zm-12.891 5.7227c-1.3086 0-2.3945 1.0625-2.3945 2.3945v18.148c0 1.332 1.0898 2.3945 2.3945 2.3945h3.8125v-22.938h-3.8125zm-5.3906 9.4492h-4.5938c-0.48438 0-0.88672 0.39844-0.88672 0.89062v2.2617c0 0.48828 0.39844 0.88672 0.88672 0.88672h4.5938zm73.898-9.4492c1.3086 0 2.3945 1.0625 2.3945 2.3945v18.148c0 1.332-1.0859 2.3945-2.3945 2.3945h-3.793v-22.938h3.793zm5.3906 9.4492h4.5898c0.48828 0 0.88672 0.39844 0.88672 0.89062v2.2617c0 0.48828-0.39844 0.88672-0.88672 0.88672h-4.5898zm-27.023-50.18c-3.3516-2.9922-7.7852-4.8125-12.621-4.8125s-9.2734 1.8203-12.621 4.8125l-2.7969-8.2969c-2.0195-5.8984 2.418-9.4727 8.0547-9.4727h14.73c5.6367 0 10.074 3.5703 8.0547 9.4727zm140.19 10.922c-6.0547-13.484-19.344-21.695-33.43-21.809-0.66406 0.0625-1.1992-0.28906-1.4453-0.91016-0.26562-0.66406 0.066406-1.5703 0.80078-1.8594 0.73047-0.28516 1.5742 0.066406 1.8594 0.80078 0.93359 1.8633 3.707 0.35547 2.707-1.418-1.0195-2.1094-3.5078-3.1094-5.7266-2.2188-2.3086 0.93359-3.4141 3.5508-2.4844 5.8555 0.22266 0.55078 0.55859 1.0625 0.95312 1.4609l-6.4102 14c-5.0781 1.5547-8.7422 6.2773-8.7422 11.867 0 1.7539 0.35938 3.418 1.0195 4.9258l-3.5039 7.6094c-0.28906 0.10938-0.57812 0.22266-0.84766 0.39844l-20.34 11.734c-2.2422 1.2891-3.0195 4.1719-1.7109 6.4102 1.2852 2.2383 4.1719 3.0195 6.4102 1.707l16.395-9.4492v22.141c0 1.7734 1.4414 3.2188 3.2148 3.2188h23.562c1.7539 0 3.2148-1.4414 3.2148-3.2188v-13.598l12.953 5.1211c0 0.57422 0.10938 1.1758 0.33203 1.7305 0.93359 2.3086 3.5508 3.4375 5.8594 2.5078 2.1758-0.86328 3.4375-3.5078 2.5508-5.7266-0.77734-1.7969-3.4609-0.82031-2.9062 1.0195 0.28906 0.73047-0.0625 1.5742-0.79688 1.8633-0.73047 0.28906-1.5977-0.13672-1.8633-0.80078-0.26562-0.66406-0.042969-1.2656 0.42188-1.6641 6.9219-6.7188 10.961-15.949 11.203-25.602l2.7539-1.1328c2.3711-0.99609 3.5234-3.7461 2.5273-6.1445-0.97656-2.3711-3.7461-3.5234-6.1211-2.5508l-0.22266 0.089844c-0.28516-1.1758-0.64453-2.3516-1.043-3.5273l10.184-4.082c0.80078-0.30859 1.1758-1.2227 0.86719-1.9961-0.39844-0.77734-1.1562-1.1758-1.9961-0.84375zm-29.594 19.5 28.926-11.934c-0.26562-1.1992-0.62109-2.3945-1.043-3.5703l-38.668 15.508zm29.727-2.1094-24.625 10.16v6.7852l14.043 5.5664c0.13672-0.15625 0.28906-0.3125 0.44531-0.46875 5.9883-5.8242 9.6055-13.723 10.137-22.043zm-28.551-5.9883c0.86719-1.6836 1.3555-3.6133 1.3555-5.6367 0-6.875-5.5664-12.426-12.422-12.426h-0.066407l5.5664-12.113c0.19922 0.023437 0.44141 0.023437 0.64453 0.023437 12.824 0.15234 24.938 7.6055 30.504 19.895zm-20.543 2.418c1.4219 1.6641 3.2617 2.9492 5.3672 3.6836l-4.9922 1.9961h-0.92969c-0.44531-0.46875-0.97656-0.82031-1.5742-1.0625zm242.92-25.762c-1.2422 0-2.2656 1.0391-2.2656 2.2812v3.2188h-4.5469c-2.1523 0-3.9258 1.7539-3.9258 3.9297v11.512c0 6.1445 4.8789 11.094 10.98 11.312 1.7734 2.6602 4.0781 4.5938 7.0078 5.8555v2.2383c0 1.7305 0.73438 3.2812 1.9062 4.3945v8.5625h-1.3711c-1.043 0-1.9102 0.86719-1.9102 1.9297v2.5312h-0.375c-5.2578 0-9.582 4.3203-9.582 9.5781h-2.6641c-0.84375 0-1.5273 0.6875-1.5273 1.5312s0.6875 1.5312 1.5273 1.5312h39.977c0.84375 0 1.5273-0.6875 1.5273-1.5312s-0.6875-1.5312-1.5273-1.5312h-2.6836c0-5.2578-4.3047-9.5781-9.5625-9.5781h-0.37891v-2.5312c0-1.0625-0.86719-1.9297-1.9336-1.9297h-1.3516v-8.5625c1.1797-1.1094 1.9062-2.6602 1.9062-4.3945v-2.2383c2.9297-1.2656 5.2344-3.1953 6.9883-5.8555 6.1211-0.22266 10.98-5.168 10.98-11.312v-11.512c0-2.1758-1.7539-3.9297-3.9023-3.9297h-4.5508v-3.2188c0-1.2422-1.0195-2.2812-2.2852-2.2812zm-4.4141-13.977 3.1719 5.4766c0.99609 1.7539-1.6445 3.2852-2.6641 1.5312l-3.1484-5.4805c-1.0234-1.75 1.6445-3.2812 2.6406-1.5273zm-14.445 13.332 5.4805 3.1719c1.7539 1.0195 0.22266 3.6602-1.5312 2.6406l-5.4805-3.1484c-1.75-1.0234-0.21875-3.6641 1.5312-2.6641zm-5.8555 18.789h6.3242c2.0195 0 2.0195 3.0625 0 3.0625h-6.3242c-2.0195 0-2.0195-3.0625 0-3.0625zm4.3281 19.172 5.4805-3.1523c1.7539-1.0195 3.2812 1.6445 1.5312 2.6406l-5.4805 3.1758c-1.7539 0.99219-3.2852-1.6484-1.5312-2.6641zm13.332 14.461 3.1484-5.4805c1.0195-1.7539 3.6602-0.22266 2.6641 1.5312l-3.1719 5.4805c-0.99609 1.7539-3.6641 0.22266-2.6406-1.5312zm37.957 1.5312-3.1719-5.4805c-1.0195-1.7539 1.6445-3.2812 2.6602-1.5312l3.1523 5.4805c1.0195 1.7539-1.6445 3.2852-2.6406 1.5312zm14.441-13.332-5.4805-3.1758c-1.7305-0.99609-0.22266-3.6602 1.5312-2.6406l5.4805 3.1523c1.75 1.0195 0.21875 3.6602-1.5312 2.6641zm5.8555-18.77h-6.3203c-2.0195 0-2.0195-3.0625 0-3.0625h6.3203c2 0 2 3.0625 0 3.0625zm-4.3242-19.188-5.4805 3.1484c-1.7305 1.0195-3.2617-1.6406-1.5312-2.6406l5.4805-3.1719c1.7305-1 3.3047 1.6406 1.5312 2.6641zm-13.332-14.465-3.1523 5.4805c-1.0195 1.7539-3.6836 0.22266-2.6602-1.5312l3.1719-5.4766c0.99609-1.7578 3.6602-0.22656 2.6406 1.5273zm-18.77-5.8359v6.3242c0 2.0195-3.0625 2.0195-3.0625 0v-6.3242c0.003907-2.0391 3.0625-2.0391 3.0625 0zm-22.449 39.223v-11.512c0-0.46484 0.39844-0.86719 0.86719-0.86719h4.5469v15.242c0 1.8438 0.3125 3.4375 0.89062 5.1719-3.7109-1.0898-6.3047-4.0859-6.3047-8.0352zm36.426-12.379h4.5508c0.46484 0 0.84375 0.40234 0.84375 0.86719v11.512c0 3.9492-2.5703 6.9453-6.2773 8.0312 0.57422-1.7305 0.88672-3.3281 0.88672-5.1719zm98.895 5.6133h2.6641c5.9688 0 10.848-4.8828 10.848-10.852v-2.375c0-7.6289 6.2344-13.859 13.863-13.859h9.6484c7.6094 0 13.844 6.2344 13.844 13.859v23.809c-0.75391-1.1523-2.1289-1.1094-2.8398 0.15234-1.8867 3.4375-5.5898 5.4805-9.4961 5.4805-3.9492 0-7.6523-2.0625-9.5391-5.5469-0.66406-1.2227-2.2188-1.2227-2.8828 0-1.8633 3.4805-5.6133 5.5469-9.5391 5.5469-3.9023 0-7.6094-2.043-9.4922-5.4805-0.73438-1.3086-2.2188-1.3086-2.9297 0-1 1.7734-2.4414 3.1758-4.1484 4.1055zm50.867 15.527v5.2852c-0.75391-1.1523-2.1289-1.1094-2.8398 0.13672-1.8867 3.4375-5.5898 5.5-9.4961 5.5-3.9492 0-7.6523-2.0898-9.5391-5.5664-0.66406-1.2227-2.2188-1.2227-2.8828 0-1.8633 3.5039-5.6133 5.5664-9.5391 5.5664-3.9023 0-7.6094-2.0391-9.4922-5.4805-0.73438-1.3086-2.2188-1.3086-2.9297 0-1.9062 3.4414-5.6133 5.4805-9.5156 5.4805-3.9297 0-7.6523-2.0625-9.5391-5.5664-0.66406-1.2227-2.1953-1.2227-2.8633 0-1.9062 3.4805-5.6133 5.5664-9.5625 5.5664-3.9023 0-7.5898-2.0625-9.4961-5.5-0.71094-1.2695-2.1055-1.2891-2.8594-0.11328v-5.3047c0.51172-0.44141 0.97656-0.95312 1.3945-1.4844 2.6641 3.3086 6.7227 5.1719 10.961 5.1719 4.2617 0 8.3164-1.8633 10.98-5.1719 2.6641 3.3086 6.7227 5.1719 10.98 5.1719 4.2617 0 8.3164-1.8633 10.98-5.1719 2.6641 3.3086 6.7227 5.1719 10.961 5.1719 4.2578 0 8.3203-1.8633 10.98-5.1719 2.6602 3.3086 6.7227 5.1719 10.98 5.1719 4.2383 0 8.2969-1.8633 10.957-5.1719 0.42578 0.52734 0.89062 1.0156 1.3789 1.4805zm0 10.207v5.2773c-0.75391-1.1523-2.1289-1.1094-2.8398 0.15625-1.8867 3.4375-5.5898 5.4805-9.4961 5.4805-3.9492 0-7.6523-2.0625-9.5391-5.5469-0.66406-1.2227-2.2188-1.2227-2.8828 0-1.8633 3.4805-5.6133 5.5469-9.5391 5.5469-3.9023 0-7.6094-2.0391-9.4922-5.4805-0.73438-1.3086-2.2188-1.3086-2.9297 0-1.9062 3.4375-5.6133 5.4805-9.5156 5.4805-3.9297 0-7.6523-2.0625-9.5391-5.5469-0.66406-1.2227-2.1953-1.2227-2.8633 0-1.9062 3.4805-5.6133 5.5469-9.5625 5.5469-3.9023 0-7.5898-2.0391-9.4961-5.4805-0.71094-1.2852-2.1055-1.3086-2.8594-0.10938v-5.3008c0.51172-0.46875 0.97656-0.95312 1.3945-1.4844 2.6641 3.3008 6.7227 5.168 10.961 5.168 4.2617 0 8.3164-1.8672 10.98-5.1914 2.6641 3.3242 6.7227 5.1914 10.98 5.1914 4.2617 0 8.3164-1.8672 10.98-5.168 2.6641 3.3008 6.7227 5.168 10.961 5.168 4.2578 0 8.3203-1.8672 10.98-5.1914 2.6602 3.3242 6.7227 5.1914 10.98 5.1914 4.2383 0 8.2969-1.8672 10.957-5.168 0.42578 0.53125 0.89062 1.0156 1.3789 1.4609zm0 10.203c-0.24219 7.4062-6.3906 13.398-13.844 13.398h-62.848c-7.4766 0-13.598-5.9688-13.844-13.375 0.48828-0.46875 0.95312-0.95313 1.375-1.4883 2.6641 3.3086 6.7227 5.1719 10.961 5.1719 4.2617 0 8.3164-1.8633 10.98-5.1719 2.6641 3.3086 6.7227 5.1719 10.98 5.1719 4.2617 0 8.3164-1.8633 10.98-5.1719 2.6641 3.3086 6.7227 5.1719 10.961 5.1719 4.2578 0 8.3203-1.8633 10.98-5.1719 2.6602 3.3086 6.7227 5.1719 10.98 5.1719 4.2383 0 8.2969-1.8633 10.957-5.1719 0.42578 0.53516 0.89062 1.0195 1.3789 1.4648zm-90.023-25.91c1.0195-3.4844 3.3711-6.4102 6.457-8.1875v12.996c-1.7109-0.94922-3.1523-2.3516-4.1289-4.1055-0.55078-1.0117-1.5508-1.2383-2.3281-0.70312zm9.4727 5.9453v-29.684c0-1.9297 1.5742-3.5039 3.5039-3.5039 1.9297 0 3.5273 1.5742 3.5273 3.5039v4.7695h12.602v-4.7695c0-1.9297 1.5742-3.5039 3.5273-3.5039 1.9297 0 3.5078 1.5742 3.5078 3.5039v29.684c-2.3516 0.48828-4.8359 0.22266-7.0352-0.77344v-7.9883h-12.602v7.9883c-2.1953 0.99219-4.6797 1.2617-7.0312 0.77344zm7.0352-15.793h12.602v-2.0859h-12.602zm-233.91 143.3c-1.332-0.53125-3.2852-1.1758-4.1719-2.2617-1.1523-1.3984-0.97656-6.3672-0.97656-8.4961 1.5312 3.8398 3.1289 7.0977 5.1484 10.758zm45.566-20.586c4.7031-0.22266 7.6992 1.8164 10.672 5.2148-4.4805 6.9844-10.359 10.691-18.391 12.484 4.3906-5.4766 6.4531-10.801 7.7188-17.699zm10.738-23.738c-2.2852 4.3945-5.0156 8.0977-10.184 9.0742-0.88672-8.2734-3.0391-15.152-8.2734-21.695 8.0312 1.8203 14.02 5.5898 18.457 12.621zm-21.875 5.707c-2.9961-1.7578-5.9023-3.7969-8.8086-5.7031-3.4609-2.2617-7.0117-4.6367-10.891-6.1016 5.3008-4.4805 11.227-6.9219 18.234-6.9219 0.28516 0 0.57422 0 0.86328 0.019531 6.3008 5.1211 8.8711 14.355 9.7617 22.117-3.4805-0.44141-6.1641-1.6602-9.1602-3.4102zm2.4414 10.223c-8.0742 0.089843-17.039-0.46875-24.891-2.4844-2.2188-0.57812-4.2148-1.2227-6.2773-2.2422 0.73047-5.7695 2.9531-10.691 6.7891-15.062 2.9961-0.066406 9.1172 4.2617 11.758 5.9883 2.9531 1.9062 5.8789 3.9727 8.8984 5.7461 3.3711 1.9922 6.6992 3.4141 10.648 3.7734 0.042968 1.3516 0.066406 2.6836 0.042968 4.0312-2.3086 0.14062-4.6406 0.23047-6.9688 0.25zm9.4961-0.44531c0.019531-1.3086 0-2.5977-0.066406-3.9023 5.6328-0.86328 8.6523-4.3477 11.445-8.9375 1.5977 3.6133 2.418 6.6523 2.6172 10.629-4.6367 1.1484-9.2305 1.793-13.996 2.2109zm13.996 0.40234c-0.28906 4.0156-1.1094 7.0781-2.8164 10.738-3.3945-3.5742-6.5234-5.457-11.578-5.4375 0.10938-1.0664 0.22266-2.1094 0.28906-3.1523 4.8125-0.41797 9.4023-1.0625 14.105-2.1484zm-28.129 10.312c-2.1758 1.2227-4.2812 2.5547-6.4102 3.8398-3.4375 2.0391-7.1016 4.3672-11.137 4.8555-6.168-5.5898-9.1406-12.688-9.1602-20.984 4.1055 1.7539 8.0312 2.6172 12.445 3.3086 6.2539 0.97656 12.602 1.3086 18.945 1.2383 2.2656-0.019531 4.5234-0.10938 6.8125-0.23828-0.089843 1.1055-0.19922 2.1719-0.35547 3.2617-4.0859 0.86328-7.5469 2.6562-11.141 4.7188zm1.5977 15.641c-0.28906 0.019531-0.57812 0.019531-0.86328 0.019531-5.9258 0-10.738-1.6875-15.641-4.8789 3.6836-1.2188 6.4531-2.7969 9.7812-4.7695 2.1289-1.2852 4.2148-2.5977 6.3672-3.8164 3.1953-1.8164 5.9219-3.2188 9.4727-4.2344-1.375 6.457-3.8594 13.398-9.1172 17.68zm-30.504 26.379c-6.1914-4.9492-20.699-14.383-19.301-23.539 1.5312-9.9844 3.0625-19.965 4.5898-29.945 1.043-6.8359 5.7461-7.0742 5.1055-0.13672-0.44141 4.8828-0.77734 9.7617-0.95312 14.664-0.13281 3.4805-1.0195 11.559 1.2656 14.309 1.6406 1.9961 5.3477 2.9727 7.7422 3.8398 1.4414 2.4375 2.8398 4.9023 4.1914 7.4102 0.71094 1.2852 2.9297 0.46875 1.9766-1.2852-1.7109-3.1953-3.5742-6.3008-5.3672-9.4492-1.6172-2.8398-4.0352-6.8984-4.9258-10.008-0.66406-2.2578-0.13281-4.2578 2.6172-2.8594 5.0352 2.5977 12.07 14.598 15.461 19.523 2.0859 3.0195 4.3516 6.0312 5.6797 9.4727 1.7969 4.6406 1.3516 11.758 1.3086 16.746l-13.07-0.003907c-0.79688-4.7461-2.6367-5.8086-6.3203-8.7383zm-4.4375-48.809c-0.10938 2.9766-0.17578 5.9453-0.19922 8.9414-2.1289 0.17578-2.418 0.86328-3.6406 2.3516 0.22266-5.3242 0.66406-10.586 1.0195-15.887 0.09375-1.457 3 0.16016 2.8203 4.5938zm-81.223 118.94c16.219 0 29.371 13.137 29.371 29.352 0 16.215-13.156 29.348-29.371 29.348-16.219 0-29.348-13.133-29.348-29.348 0-16.219 13.129-29.352 29.348-29.352zm0-2.8164c-6.5195 0-12.867 1.9492-18.234 5.6562h-42.172v-2.4648c0-4.4141 3.6133-8.0547 8.0508-8.0547h46.68c3.3477 0 5.9883 1.9297 7.4062 4.9023-0.57812-0.019531-1.1562-0.039062-1.7305-0.039062zm-26.512 13.93h-24.578c-2.1484 0-3.9258 1.7734-3.9258 3.9258v20.895c0 2.1523 1.7734 3.9297 3.9258 3.9297h20.676c0.66406 1.8867 1.4648 3.6367 2.4414 5.3906h-32.434l-0.003906-39.531h38.578c-1.75 1.6641-3.2852 3.375-4.6797 5.3906zm13.18 47.543h-39.023c-4.4375 0-8.0508-3.6406-8.0508-8.0547v-2.4648h34.297c3.457 4.793 7.4961 7.9453 12.777 10.52zm0.085938-69.215h-31.566v-7.8281h31.566zm-36.316-10.715c-0.55469 0-1.043-0.46875-1.043-1.0195v-8.1445c0-0.55469 0.48828-1.0195 1.043-1.0195h41.062c0.57422 0 1.0391 0.46484 1.0391 1.0195v8.1406c0 0.55469-0.46484 1.0195-1.0391 1.0195zm17.395 50.625c0 2.6406 0.3125 5.1445 0.92969 7.6953h-19.855c-0.61719 0-1.1094-0.51172-1.1094-1.1094l0.003906-20.898c0-0.62109 0.48828-1.1055 1.1094-1.1055h22.852c-2.5977 4.8555-3.9297 9.9141-3.9297 15.418zm24.625 11.488 4.3711-5.2305c1.0195 0.48828 2.0195 0.75391 3.1719 0.75391 2.1055 0 3.8633-0.86328 5.2812-2.375l4.1484 4.1758c-0.089844 0.39844-0.13281 0.77344-0.13281 1.1953 0 2.8828 2.3477 5.2344 5.2344 5.2344 2.8828 0 5.2344-2.3555 5.2344-5.2344 0-2.8828-2.3555-5.2344-5.2344-5.2344-1.4414 0-2.5977 0.53125-3.6602 1.4883l-4.168-4.1719c0.19531-0.71094 0.30859-1.3555 0.30859-2.0859 0-0.80078-0.13281-1.5312-0.375-2.2852l4.5469-4.5508c0.93359 0.37891 1.8008 0.60156 2.8164 0.60156 3.8594 0 7.0117-3.1523 7.0117-7.0117 0-3.8867-3.1484-7.0117-7.0117-7.0117-3.8828 0-7.0117 3.125-7.0117 7.0117 0 1.8398 0.64453 3.3711 1.8633 4.7461l-3.7305 3.7031c-1.3945-1.4219-3.082-2.2188-5.125-2.2188-1.707 0-3.1484 0.57422-4.4805 1.6172l-3.4609-2.7305c0.64453-1.1523 0.97656-2.2617 0.97656-3.5703 0-3.8594-3.1523-7.0117-7.0117-7.0117-3.8789 0-7.0078 3.1484-7.0078 7.0117 0 3.8828 3.1289 7.0117 7.0078 7.0117 1.5547 0 2.8867-0.46875 4.1484-1.3555l3.5938 2.8594c-0.50781 1.0195-0.77344 2.0234-0.77344 3.1758 0 1.707 0.57422 3.1719 1.6211 4.4805l-4.2383 5.125c-0.77734-0.37891-1.4844-0.55859-2.3516-0.55859-2.8828 0-5.2344 2.3555-5.2344 5.2344 0 2.8867 2.3555 5.2344 5.2344 5.2344 2.8867 0 5.2344-2.3516 5.2344-5.2344 0-1.0352-0.26563-1.8984-0.79688-2.7891zm7.543-15.684c2.3281 0 4.1914 1.8906 4.1914 4.1953 0 2.3047-1.8633 4.1914-4.1914 4.1914-2.3086 0-4.1719-1.8867-4.1719-4.1914 0-2.3086 1.8633-4.1953 4.1719-4.1953zm14.531 11.777c1.332 0 2.418 1.0898 2.418 2.4219 0 1.3281-1.0859 2.4219-2.418 2.4219-1.3281 0-2.418-1.0898-2.418-2.4219s1.0859-2.4219 2.418-2.4219zm-26.512 4.2852c1.332 0 2.418 1.0859 2.418 2.418s-1.0859 2.418-2.418 2.418c-1.3281 0-2.418-1.0859-2.418-2.418s1.0859-2.418 2.418-2.418zm25.977-29.309c2.3086 0 4.168 1.8633 4.168 4.1953 0 2.3086-1.8594 4.1719-4.168 4.1719-2.3281 0-4.1914-1.8633-4.1914-4.1719 0-2.332 1.8633-4.1953 4.1914-4.1953zm-27.977 1.5547c2.3086 0 4.1953 1.8828 4.1953 4.1914 0 2.3047-1.8867 4.1914-4.1953 4.1914-2.3086 0-4.1914-1.8867-4.1914-4.1914 0-2.3086 1.8867-4.1914 4.1914-4.1914zm-88.844 34.68 1.7539-1.7305 8.1406 7.0547c0.62109 0.55469 1.5508 0.52734 2.1055-0.066406 0.57422-0.60156 0.55469-1.5781-0.066406-2.1289l-14.996-13.469c-0.57422-0.53125-1.4844-0.55469-2.082 0.046875l-3.418 3.4141c-0.57422 0.57422-0.55469 1.4844-0.023437 2.0859l13.469 14.996c0.53125 0.60156 1.5078 0.62109 2.1094 0.066407 0.61719-0.57422 0.61719-1.5078 0.089844-2.1289zm-73.785-75.695c-2.8164 2.7969-4.1445 6.5195-4.0156 10.184l14.195-14.195c-3.6562-0.13281-7.3828 1.1953-10.18 4.0117zm-3.3945 13.824c0.64453 2.0625 1.7734 3.9922 3.3945 5.6094 1.6211 1.6172 3.5508 2.7734 5.6133 3.3945l17.215-17.215c-0.62109-2.0625-1.7734-3.9883-3.3945-5.6094-1.6172-1.6172-3.5508-2.7539-5.6133-3.3945zm12.645 9.625c3.6602 0.13672 7.3867-1.1992 10.184-4.0195 2.8164-2.793 4.1484-6.5234 4.0156-10.184l-10.805 10.805zm4.4805-9.7148c-2.2188 2.2188-5.8125 2.2188-8.0312 0s-2.2188-5.8125 0-8.0312 5.8125-2.2188 8.0312 0c2.2188 2.2148 2.2188 5.8164 0 8.0312zm15.73-5.832c-2.7969 2.8164-4.125 6.5195-4.0117 10.203l14.219-14.219c-3.6836-0.14062-7.3906 1.2188-10.207 4.0156zm-3.3945 13.82c0.64453 2.0625 1.7773 3.9922 3.3945 5.6094 1.6445 1.6445 3.5742 2.7734 5.6133 3.418l17.238-17.234c-0.64453-2.0391-1.7734-3.9727-3.4141-5.6133-1.6172-1.6211-3.5508-2.7539-5.6133-3.3945zm12.645 9.6445c3.6836 0.11328 7.3867-1.2188 10.184-4.0352 2.8164-2.793 4.1484-6.4961 4.0352-10.184l-3.418 3.3945-7.4102 7.4102zm4.4805-9.7344c-2.2188 2.2188-5.8125 2.2188-8.0078 0-2.2188-2.2188-2.2188-5.8125 0-8.0117 2.1953-2.2188 5.7891-2.2188 8.0078 0 2.2188 2.1953 2.2188 5.793 0 8.0117zm-35.293 7.832c-2.7969 2.8164-4.125 6.5195-4.0156 10.199l14.219-14.219c-3.6797-0.12891-7.3867 1.2227-10.203 4.0195zm-3.3945 13.816c0.64453 2.0625 1.7734 3.9922 3.3945 5.6133 1.6406 1.6445 3.5703 2.7734 5.6094 3.4141l17.238-17.238c-0.64453-2.0391-1.7734-3.9688-3.4141-5.6094-1.6211-1.6211-3.5469-2.7539-5.6094-3.3984zm12.645 9.6523c3.6797 0.10938 7.3867-1.2227 10.18-4.0352 2.8203-2.7969 4.1484-6.5 4.0391-10.184zm4.4805-9.7383c-2.2188 2.2188-5.8125 2.2188-8.0078 0-2.2188-2.2227-2.2188-5.8125 0-8.0117 2.1953-2.2188 5.7852-2.2188 8.0078 0 2.2188 2.2031 2.2188 5.793 0 8.0117zm24.914 3.3945c-2.7969 2.7969-4.125 6.5195-4.0156 10.184l14.219-14.199c-3.6836-0.13281-7.3867 1.1992-10.203 4.0156zm-3.3945 13.82c0.64453 2.0391 1.7734 3.9922 3.3945 5.6133 1.6406 1.6172 3.5703 2.75 5.6328 3.3945l17.215-17.215c-0.64453-2.0625-1.7734-3.9922-3.3945-5.6094-1.6406-1.6445-3.5742-2.7734-5.6133-3.4141zm12.645 9.625c3.6836 0.13281 7.3867-1.2188 10.207-4.0156 2.793-2.8164 4.125-6.5234 4.0156-10.203zm4.4805-9.7148c-2.1953 2.1953-5.7891 2.1953-8.0117 0-2.2188-2.2188-2.2188-5.8125 0-8.0312s5.8125-2.2188 8.0117 0c2.2188 2.2227 2.2188 5.8164 0 8.0312zm228.76-18.828v-4.3242h5.0781v4.3242zm34.234 39.09-20.059 5.3008c-0.92969 0.26562-1.8633-0.28516-2.082-1.2227l-4.082-17.215v-4.3945c3.4805-0.93359 5.9453-3.8828 5.9453-7.5234v-11.125h15.66l5.7695 34.203c0.13281 0.77734-0.40234 1.7539-1.1523 1.9766zm-33.211 4.0156c-0.19531 1-1.1523 1.5312-2.0859 1.2852l-19.988-5.2773c-0.88672-0.19922-1.3984-1.043-1.2656-1.9062l2.8828-17.039h12.137c2.7266 0 4.9258-2.2188 4.9258-4.9219v-12.336h7.4492v23.047zm-24.602-82.461v2.8398c0 6.3242-9.5391 6.3242-9.5391 0v-2.8398c3.1055 0.84766 6.4336 0.84766 9.5391 0zm0-3.125c-3.0859 1.0195-6.4531 1.0195-9.5391 0l-0.003907-1.1328c0-0.81641-0.6875-1.4844-1.5078-1.4844h-6.3242c-0.84375 0-1.5078 0.66406-1.5078 1.4844v13.559c0 4.0352-3.2852 7.3164-7.3203 7.3164-0.82422 0-1.5117 0.6875-1.5117 1.5117v36.473c0 1.0195 0.84375 1.8594 1.8633 1.8594h42.129c1.043 0 1.8633-0.84375 1.8633-1.8594v-36.473c0-0.82031-0.66406-1.5117-1.4844-1.5117-4.0352 0-7.3203-3.2812-7.3203-7.3164l0.003906-13.559c0-0.81641-0.6875-1.4844-1.5078-1.4844h-6.3242c-0.82031 0-1.5078 0.66406-1.5078 1.4844zm34.605 45.391v11.129c0 2.1328-1.1953 3.5742-3.0156 4.4844v-15.613zm9.8477-7.2344v4.3242h-4.8555v-4.3242zm2.9297 4.3242v-4.3242h5.082v4.3242zm-10.715-4.3242v4.3242h-5.0781v-4.3242zm193.48-134.26c-1.8867 4.125-3.8164 8.207-5.6992 12.332-0.60156 1.332-2.2188 1.9531-3.5508 1.332-1.332-0.59766-1.9531-2.2188-1.332-3.5508 1.8867-4.1289 3.8164-8.2305 5.7031-12.355 1.418-3.1289 6.3633-1.0195 4.8789 2.2422zm51.023 0c1.8867 4.125 3.8164 8.207 5.6992 12.332 1.4648 3.2188 6.3438 0.98047 4.8828-2.2188-1.8867-4.1289-3.8164-8.2305-5.7031-12.355-1.418-3.1289-6.3633-1.0195-4.8789 2.2422zm-17.879 53.91c0 4.8359 7.4766 4.7695 7.4766-0.13672v-27.977c0-0.84375 0.6875-1.5312 1.5312-1.5312s1.5312 0.6875 1.5312 1.5312v28.109c0 4.8359 7.4531 4.7695 7.4531-0.13672 0-15.438-0.023437-30.836-0.023437-46.254-0.46484-1.0469-0.95312-2.1094-1.4414-3.1484h-7.9844c-2.0195 0-2.0195-3.0391 0-3.0391h6.5898c-0.75391-1.6445-0.73047-3.4805 0.10938-5.1016h-14.375c-0.44141 0-0.82031 0.375-0.82031 0.82031-0.003907 18.969-0.046875 37.891-0.046875 56.863zm27.906-52.312h6.8984c3.5273 0 3.5273-5.3672 0-5.3672h-9.3867c0.042969 0.089844 0.089844 0.17969 0.13281 0.26562 0.78125 1.707 1.5586 3.4141 2.3555 5.1016zm-18.902-22.562c-3.7031 0-6.7227 3.0156-6.7227 6.7188 0 3.7305 3.0156 6.7227 6.7227 6.7227 3.7266 0 6.7227-2.9922 6.7227-6.7227 0.003906-3.7031-2.9961-6.7188-6.7227-6.7188zm-24.266 74.875c0 4.8359-7.4766 4.7695-7.4766-0.13672v-27.977c0-0.84375-0.6875-1.5312-1.5312-1.5312-0.82031 0-1.5117 0.6875-1.5117 1.5312v28.109c0 4.8359-7.4766 4.7695-7.4766-0.13672 0-15.438 0.023438-30.836 0.023438-46.254 0.46484-1.0469 0.95312-2.1094 1.4414-3.1484h7.9844c2.0195 0 2.0195-3.0391 0-3.0391h-6.5664c0.73047-1.6445 0.71094-3.4805-0.13281-5.1016h14.375c0.46484 0 0.82031 0.375 0.82031 0.82031 0.003906 18.969 0.050781 37.891 0.050781 56.863zm-27.91-52.312h-6.875c-1.4883 0-2.707-1.1992-2.707-2.6875 0-1.4609 1.2188-2.6836 2.707-2.6836h9.3594c-0.86328 1.7109-1.6641 3.6406-2.4844 5.3711zm18.902-22.562c3.7031 0 6.7227 3.0156 6.7227 6.7188 0 3.7305-3.0156 6.7227-6.7227 6.7227-3.7266 0-6.7227-2.9922-6.7227-6.7227 0-3.7031 2.9961-6.7188 6.7227-6.7188zm-216.15-57.277h18.48l-12.512 21.676h-7.3008c-2.5508 0.0625-4.5938-1.2891-5.8555-3.4648l-19.258-33.344 11.867-6.8555 11.582 20.055c0.75391 1.3125 1.8633 1.8867 2.9961 1.9336zm33.652-16.371v2.707c0 4.3711-7.5664 7.918-16.883 7.918-9.3203 0-16.883-3.5469-16.883-7.918v-2.707c4.2578 3.2617 11.691 3.9258 16.883 3.9258 5.168 0 12.602-0.64453 16.883-3.9258zm-0.070312-5.5234c0 5.6992-12.844 6.4531-16.812 6.4531-3.9961 0-16.73-0.75391-16.816-6.3906-0.26562-5.4141 13.133-6.5039 16.816-6.5039 3.8125 0.003906 16.812 0.98047 16.812 6.4414zm-61.555 4.1016-13.535-23.449 11.848-6.8555c4.5234 7.8125 9.0273 15.641 13.555 23.449zm-15.066-26.109-1.8203-3.1289 11.871-6.8555 1.7969 3.1289zm-3.3477-5.793-4.9922-8.6484c-4.5234-7.8555 7.3203-14.688 11.848-6.8555l5.0156 8.6758zm68.414 49.695h5.7695l-12.512 21.676h-5.7891zm9.2969 0h3.0859c1.9297 0 3.5234 1.5742 3.5234 3.5273v14.621c0 1.9297-1.5977 3.5273-3.5234 3.5273l-15.602-0.003907zm-158.55-156.26c-13.797 0-25.09 11.293-25.09 25.094 0 13.797 11.293 25.066 25.09 25.066 13.801 0 25.09-11.27 25.09-25.066s-11.293-25.094-25.09-25.094zm37.957 11.516-2.2852 5.1875c-2.1953 0.26953-4.082-0.13281-6.1016-0.99609l2.5977-5.4805c1.9062 0.84766 3.6797 1.2695 5.7891 1.2891zm3.6602-8.3203-2.2852 5.1914c-2.1289 0.24219-3.9922-0.10938-5.9453-0.95313l2.4375-5.5234c1.9102 0.82031 3.707 1.2422 5.793 1.2852zm3.6602-8.3398-2.2656 5.1914c-2.1289 0.24219-3.9922-0.11328-5.9688-0.9375l2.4414-5.543c1.9336 0.84766 3.707 1.2695 5.793 1.2891zm-12.18 5.6094-2.418 5.5273c-1.6836-1.0898-3.2383-2.3086-4.793-3.5742l2.3984-5.457c1.5508 1.2422 3.1289 2.4414 4.8125 3.5039zm3.6836-8.3164-2.4414 5.5039c-1.6875-1.0898-3.2148-2.2852-4.793-3.5703l2.418-5.4336c1.5547 1.2383 3.1094 2.4336 4.8164 3.5zm-10.961 2.8164-2.3945 5.457c-1.5508-1.2422-3.1484-2.418-4.8555-3.4375l2.418-5.5c1.707 1.043 3.2578 2.2383 4.832 3.4805zm3.6602-8.3164-2.3945 5.4375c-1.5508-1.2422-3.1289-2.3984-4.8359-3.4375l2.418-5.5039c1.707 1.0625 3.2617 2.2383 4.8125 3.5039zm-16.703-0.86719 2.3047-5.2305c2.6172-0.089844 4.3906 0.13281 6.8555 1.1758l-2.418 5.5234c-2.1953-0.95703-4.3672-1.4453-6.7422-1.4688zm-3.6602 8.3203 2.2852-5.2344c2.6172-0.066406 4.4141 0.15234 6.8789 1.1758l-2.4414 5.5234c-2.1953-0.93359-4.3281-1.4219-6.7227-1.4648zm-41.262 16.125c0.80078 1.8438 1.6641 3.7031 2.418 5.5469-1.9297 0.82031-3.8359 1.1797-5.9453 0.93359l-2.2852-5.1875c2.1055-0.023438 3.8828-0.44531 5.8125-1.293zm-3.6836-8.3164 2.4414 5.5234c-1.9531 0.84375-3.8164 1.1992-5.9453 0.95313l-2.2852-5.1914c2.1055-0.042969 3.8828-0.46484 5.7891-1.2852zm-3.6602-8.3203 2.4375 5.5195c-1.9492 0.82031-3.8359 1.1797-5.9453 0.9375l-2.2852-5.1914c2.0898-0.019532 3.8867-0.44141 5.793-1.2656zm11.203 3.3711 2.3945 5.457c-1.5508 1.2656-3.1055 2.4844-4.7891 3.5742l-2.4219-5.5273c1.6875-1.0625 3.2617-2.2617 4.8164-3.5039zm-3.6602-8.3164 2.3945 5.4336c-1.5547 1.2656-3.1055 2.5078-4.793 3.5703l-2.418-5.5039c1.6875-1.0625 3.2617-2.2578 4.8164-3.5zm10.961 2.8398 2.418 5.5c-1.707 1.0195-3.2852 2.1953-4.8594 3.4375l-2.3945-5.457c1.5508-1.2422 3.125-2.4375 4.8359-3.4805zm-3.6641-8.3438 2.418 5.5039c-1.707 1.0195-3.3047 2.1953-4.8594 3.4375l-2.3945-5.4375c1.5547-1.2422 3.1289-2.4375 4.8359-3.5039zm5.1484 4.1055-2.4414-5.5234c2.4414-1.0195 4.2578-1.2656 6.8789-1.1758l2.2852 5.2305c-2.418 0.027344-4.5039 0.51563-6.7227 1.4688zm3.6602 8.3203-2.418-5.5234c2.418-1.0195 4.2383-1.2422 6.8555-1.1758l2.3086 5.2344c-2.4219 0.042969-4.5273 0.53125-6.7461 1.4648zm-9.918 17.922c-0.42188 0.28906-0.84375 0.55859-1.2617 0.82031-0.75391-1.8438-1.5977-3.6836-2.418-5.5039 1.707-1.0625 3.2617-2.2656 4.8125-3.5039l1.5508 3.5039c-1.0391 1.4688-1.9258 3.043-2.6836 4.6836zm4.8359-7.3867-1.2188-2.793c1.5508-1.2422 3.1289-2.4414 4.8125-3.5078l1 2.2422c-1.6875 1.2188-3.1719 2.5508-4.5938 4.0586zm7.2109-5.6992-0.88672-2.0195c2.418-1.0195 4.2383-1.2656 6.8555-1.1758l0.28906 0.61719c-2.2188 0.625-4.2617 1.4453-6.2578 2.5781zm9.3633-3.2617-9.1172-20.719 2.3516-1.043 9.4492 21.492c-0.91016 0.046876-1.7734 0.13672-2.6836 0.26953zm6.0117-0.26562 9.4492-21.492 2.375 1.043-9.1406 20.719c-0.88672-0.13672-1.7734-0.22656-2.6836-0.26953zm5.8125 0.95312 0.26563-0.61719c2.6172-0.089844 4.3906 0.13281 6.8555 1.1758l-0.86328 2.0195c-2.0234-1.1367-4.0625-1.957-6.2578-2.5781zm8.875 4.2148 0.97656-2.2422c1.707 1.0625 3.2617 2.2422 4.8359 3.5078l-1.2422 2.793c-1.4023-1.5078-2.9102-2.8398-4.5703-4.0586zm6.7188 6.7656 1.5508-3.5039c1.5547 1.2383 3.1289 2.4375 4.8164 3.5039-0.80078 1.8203-2.418 5.5039-2.418 5.5039-0.42188-0.26562-0.84375-0.53125-1.2422-0.82031-0.71094-1.6211-1.6836-3.2422-2.707-4.6836zm-27.949 30.992v-3.6172c0-4.7461-3.8828-8.6328-8.6523-8.6328h-1.1992c-0.30859 0.64453-0.95312 1.0664-1.6836 1.0664h-2.1953c1.2852 6.7422 6.1445 12.289 12.668 14.441v-1.5742c-0.003906-0.70703 0.41797-1.3711 1.0625-1.6836zm10.734 3.3047c6.5664-2.1328 11.469-7.7227 12.758-14.484h-2.1953c-0.71094 0-1.375-0.42187-1.6875-1.0664h-1.1992c-4.7461 0-8.6523 3.8828-8.6523 8.6328v3.6836c0.60156 0.3125 0.97656 0.95313 0.97656 1.6172zm11.184-26.312c-3.1719-6.5-9.7812-10.648-17.039-10.648-7.2539 0-13.867 4.1484-17.035 10.648h0.62109c0.73047 0 1.375 0.42578 1.6836 1.0898h29.461c0.3125-0.66016 0.97656-1.0898 1.6875-1.0898zm314.98-131.6h11.848l1.332 5.2578h-13.176zm55.949 15.148-11.848-0.019531-1.332-5.2578h13.18zm10.867-37.336 0.042969-0.019531c3.6172-0.71094 6.2344-3.9023 6.2344-7.5898 0-4.2812-3.4844-7.7422-7.7656-7.7422-3.2617 0-6.168 2.043-7.2773 5.1055h-0.46484c-1.1094-3.0625-4.0156-5.1055-7.2773-5.1055-3.2812 0-6.1641 2.043-7.2969 5.1055h-0.53125c-1.1328-3.0625-4.0156-5.1055-7.3008-5.1055-3.2383 0-6.1641 2.0195-7.2734 5.0781l-0.023437 0.023437h-0.28906l-0.023437-0.023437c-1.1094-3.0586-4.0156-5.0781-7.2734-5.0781-4.2812 0-7.7422 3.4609-7.7422 7.7422 0 3.707 2.6406 6.9219 6.3008 7.6094h7.543c-0.10937-0.75391-0.26953-1.5312-0.51172-2.3086 0-0.28516 0.39844-0.48438 0.64453-0.48438h32.609c0.26562 0 0.6875 0.22266 0.64453 0.55469-0.15625 0.75781-0.35547 1.4844-0.48828 2.2383zm-12.312 9.2969c7.543 0.19922 12.668 3.082 18.566 7.4766 0.066406 2.3555-0.023438 4.7031-0.22266 7.0547-0.46484 5.9883-1.5547 12.066-2.6836 17.973h-14.73v-1.4688h1.8438c0.82031 0 1.5312-0.48437 1.8633-1.2422h8.0977c0.95312 0 1.7305-0.77734 1.7305-1.7305v-5.3242c0-0.94922-0.77734-1.7305-1.7305-1.7305h-8.0977v-0.046875c-0.33203-0.73047-1.0625-1.1953-1.8633-1.1953h-13.199c-0.13281-0.19922-0.26562-0.39844-0.39844-0.60156l13.266-6.1914c1.0195-0.48437 1.4648-1.707 0.97656-2.7031l-3.0625-6.5195c-0.48828-1.0195-1.6875-1.4414-2.707-0.97656l-17.215 8.0117c-0.37891-0.22656-0.73047-0.42578-1.1094-0.62109l2.0859-2.0859c0.64453-0.64453 0.64453-1.7109 0-2.3789-0.66406-0.64453-1.7305-0.64453-2.3711 0l-2.9062 2.9297c-0.51172-0.22266-1.0195-0.42187-1.5508-0.59766l1.2852-1.2852c0.66406-0.66406 0.66406-1.7305 0-2.3711-0.64453-0.66406-1.7109-0.66406-2.375 0l-2.5508 2.5508c-0.73047-0.17578-1.4648-0.35156-2.1953-0.48438-3.9922-0.80078-8.6953-3.0781-10.402-7.0117 13.883 0.14844 27.77 0.19141 41.656 0.57031zm-35.938-6.2773s32.078-0.26562 48.117 0c4.5938 0.089844 5.5898 6.3203 6.0781 9.8086-5.5469-3.8398-10.605-6.1211-17.438-6.5-14.152-0.44531-28.352-0.46875-42.527-0.62109 1.3555-1.6016 3.6836-2.7344 5.7695-2.6875zm28.863 44.391v-7.0781h5.0117v4.2188c0 1.5742-1.2852 2.8594-2.8594 2.8594zm11.535-14.109h7.0117v2.7969h-7.0117zm-4.1719-13.336-15.375 7.168-4.3945-3.7969 17.523-8.1406zm-65.664 39.535v0.019531l-0.042969 0.003907c-3.6172 0.71094-6.2109 3.9023-6.2109 7.5898 0 4.2812 3.4609 7.7656 7.7422 7.7656 3.2383 0 6.168-2.0391 7.2773-5.0781l0.023438-0.042968h0.44141l0.023438 0.042968c1.1094 3.0391 4.0156 5.0781 7.2773 5.0781 3.2383 0 6.168-2.0391 7.2773-5.0781l0.019531-0.042968h0.53125v0.042968c1.1328 3.0391 4.0391 5.0781 7.2773 5.0781 3.2617 0 6.168-2.0391 7.2969-5.0781v-0.042968h0.28906l0.023437 0.042968c1.1094 3.0391 4.0391 5.0781 7.2773 5.0781 4.2812 0 7.7422-3.4805 7.7422-7.7656 0-3.7031-2.6406-6.9219-6.2773-7.6094h-7.5664c0.13281 0.77344 0.28906 1.5508 0.53125 2.3086-0.023437 0.28906-0.39844 0.48438-0.66406 0.48438h-16.328-16.281c-0.26953 0-0.6875-0.22266-0.64453-0.53125 0.17969-0.75781 0.35547-1.5078 0.48828-2.2617zm12.336-9.2734c-7.543-0.19531-12.688-3.1055-18.566-7.4766-0.066406-2.375 0.019532-4.7031 0.19922-7.0547 0.48828-6.0117 1.5547-12.09 2.6836-17.992h14.73v1.4648h-1.8398c-0.82031 0-1.5312 0.48828-1.8633 1.2422h-8.0977c-0.95312 0-1.7305 0.77344-1.7305 1.7266v5.3477c0 0.95312 0.77734 1.7305 1.7305 1.7305h8.0977l0.019531 0.019531c0.33203 0.73047 1.043 1.1953 1.8438 1.1953h13.223c0.10938 0.22266 0.24219 0.42188 0.37891 0.62109l-13.266 6.1875c-1 0.46484-1.4414 1.6836-0.97656 2.707l3.082 6.5195c0.46484 1.0039 1.6875 1.4414 2.6836 0.98047l17.238-8.0312c0.35547 0.22266 0.71094 0.44141 1.0898 0.64453l-2.0625 2.0625c-0.66406 0.66406-0.66406 1.7305 0 2.3711 0.64453 0.64453 1.7109 0.64453 2.375 0l2.9062-2.9023c0.51172 0.19922 1.0195 0.39453 1.5312 0.59766l-1.2852 1.2891c-0.64453 0.64062-0.64453 1.7031 0 2.3711 0.66406 0.64062 1.7305 0.64062 2.375 0l2.5508-2.5742c0.73047 0.19922 1.4648 0.35547 2.1953 0.50781 3.9961 0.77734 8.6953 3.0625 10.406 7.0117-13.879-0.14453-27.789-0.21094-41.652-0.56641zm35.914 6.2539s-32.078 0.28906-48.117 0c-4.5703-0.066406-5.5938-6.3203-6.0781-9.8047 5.5469 3.8398 10.602 6.1445 17.434 6.5195 14.176 0.42188 28.352 0.44531 42.527 0.60156-1.3281 1.5977-3.6562 2.7305-5.7656 2.6836zm-28.863-44.391v7.0781h-4.9922v-4.1914c0-1.5977 1.2852-2.8867 2.8633-2.8867zm-11.535 14.109h-7.0117v-2.7734h7.0117zm4.1914 13.359 15.352-7.1875 4.3945 3.793-17.504 8.1641z" fill-rule="evenodd"/>
<text x="0.0" y="117.5" font-size="5.0" font-weight="bold" font-family="Arbeit Regular, Helvetica, Arial-Unicode, Arial, Sans-serif" fill="#000000"></text><text x="0.0" y="122.5" font-size="5.0" font-weight="bold" font-family="Arbeit Regular, Helvetica, Arial-Unicode, Arial, Sans-serif" fill="#000000"></text></svg>