<svg xmlns="http://www.w3.org/2000/svg" version="1.1" viewBox="-5.0 -10.0 110.0 135.0">
 <path d="m39.434 47.934h-27.809c-4.6875 0-8.5-3.8125-8.5-8.5v-27.809c0-4.6875 3.8125-8.5 8.5-8.5h27.809c4.6875 0 8.5 3.8125 8.5 8.5v27.805c0 4.6875-3.8125 8.5-8.5 8.5zm-27.809-38.559c-1.2422 0-2.25 1.0078-2.25 2.25v27.805c0 1.2422 1.0078 2.25 2.25 2.25h27.809c1.2422 0 2.25-1.0078 2.25-2.25v-27.805c0-1.2422-1.0078-2.25-2.25-2.25z"/>
 <path d="m88.375 96.875h-27.809c-4.6875 0-8.5-3.8125-8.5-8.5v-27.805c0-4.6875 3.8125-8.5 8.5-8.5h27.809c4.6875 0 8.5 3.8125 8.5 8.5v27.805c0 4.6875-3.8125 8.5-8.5 8.5zm-27.809-38.559c-1.2422 0-2.25 1.0078-2.25 2.25v27.805c0 1.2422 1.0078 2.25 2.25 2.25h27.809c1.2422 0 2.25-1.0078 2.25-2.25v-27.805c0-1.2422-1.0078-2.25-2.25-2.25z"/>
 <path d="m74.473 47.934c-12.352 0-22.402-10.051-22.402-22.402s10.051-22.406 22.402-22.406c12.352 0 22.402 10.051 22.402 22.406 0 12.352-10.051 22.402-22.402 22.402zm0-38.559c-8.9062 0-16.152 7.2461-16.152 16.156 0 8.9062 7.2461 16.152 16.152 16.152s16.152-7.2461 16.152-16.152-7.2461-16.156-16.152-16.156z"/>
 <path d="m25.527 96.875c-12.352 0-22.402-10.051-22.402-22.406 0-12.352 10.051-22.402 22.402-22.402 12.352 0 22.402 10.051 22.402 22.402s-10.051 22.406-22.402 22.406zm0-38.559c-8.9062 0-16.152 7.2461-16.152 16.152s7.2461 16.156 16.152 16.156 16.152-7.2461 16.152-16.156c0-8.9062-7.2461-16.152-16.152-16.152z"/>
<text x="0.0" y="117.5" font-size="5.0" font-weight="bold" font-family="Arbeit Regular, Helvetica, Arial-Unicode, Arial, Sans-serif" fill="#000000"></text><text x="0.0" y="122.5" font-size="5.0" font-weight="bold" font-family="Arbeit Regular, Helvetica, Arial-Unicode, Arial, Sans-serif" fill="#000000"></text></svg>