<svg xmlns="http://www.w3.org/2000/svg" version="1.1" viewBox="-5.0 -10.0 110.0 135.0">
 <path d="m93.48 50-13.148 13.148-4.418-4.418 5.6055-5.6055h-26.832v-6.25h26.832l-5.6016-5.6016 4.418-4.418zm-26.293-6.25h4.6875v-35.938h-25v4.6875h20.312zm-60.938-31.25 37.5-9.375v93.75l-37.5-9.375zm26.562 37.5c0 1.7266 1.3984 3.125 3.125 3.125s3.125-1.3984 3.125-3.125-1.3984-3.125-3.125-3.125-3.125 1.3984-3.125 3.125zm34.375 37.5h-20.312v4.6875h25v-35.938h-4.6875z"/>
<text x="0.0" y="117.5" font-size="5.0" font-weight="bold" font-family="Arbeit Regular, Helvetica, Arial-Unicode, Arial, Sans-serif" fill="#000000"></text><text x="0.0" y="122.5" font-size="5.0" font-weight="bold" font-family="Arbeit Regular, Helvetica, Arial-Unicode, Arial, Sans-serif" fill="#000000"></text></svg>