<svg xmlns="http://www.w3.org/2000/svg" data-name="Layer 1" viewBox="0 0 48 60" x="0px" y="0px"><title>seafood solid icons</title><path d="M46.44,10.05c-1.79,1.37-3.18,4.93-3.18,9.11,0,3.73,1.08,7,2.51,8.6V37.84c0,3.08,2.23,3.08,2.23,0v-27A1,1,0,0,0,46.44,10.05Z"/><path d="M25,14.52a9.47,9.47,0,1,0,6.7,2.78A9.42,9.42,0,0,0,25,14.52Z"/><path d="M36.78,12.26A16.57,16.57,0,0,0,25,7.41,16.57,16.57,0,0,0,9.76,17.53a16.47,16.47,0,0,0,0,12.92A16.6,16.6,0,0,0,25,40.59a16.64,16.64,0,0,0,11.74-4.86,16.76,16.76,0,0,0,3.55-5.28,16.7,16.7,0,0,0,0-12.92A16.94,16.94,0,0,0,36.78,12.26ZM35.59,28.45a11.23,11.23,0,0,1-2.45,3.64,11.43,11.43,0,0,1-16.2,0,11.46,11.46,0,0,1-2.45-12.55,11.23,11.23,0,0,1,2.45-3.64,11.43,11.43,0,0,1,16.2,0,11.46,11.46,0,0,1,2.45,12.55Z"/><path d="M6.52,17.63H5.68V10.26a.73.73,0,0,0-.54-.43h0c-.1,0,0,0-.11,0s0,0,0,0H5a.57.57,0,0,0-.43.43v7.37H3.29V10.26a.57.57,0,0,0-.43-.43h0s0,0,0,0l-.12,0h0a.73.73,0,0,0-.53.43v7.37H1.33V10.21A1.73,1.73,0,0,0,0,10.63v7.14a3.8,3.8,0,0,0,2.45,3.69A90.77,90.77,0,0,1,2.6,38.59a1.32,1.32,0,0,0,1.32,1.58,1.32,1.32,0,0,0,1.33-1.58A90.77,90.77,0,0,1,5.4,21.46a3.8,3.8,0,0,0,2.45-3.69V10.63a1.73,1.73,0,0,0-1.33-.42Z"/><text x="0" y="63" fill="#000000" font-size="5px" font-weight="bold" font-family="'Helvetica Neue', Helvetica, Arial-Unicode, Arial, Sans-serif"></text><text x="0" y="68" fill="#000000" font-size="5px" font-weight="bold" font-family="'Helvetica Neue', Helvetica, Arial-Unicode, Arial, Sans-serif"></text></svg>