<svg xmlns="http://www.w3.org/2000/svg" version="1.1" viewBox="-5.0 -10.0 110.0 135.0">
 <path d="m82.387 80.406h-6.0078l-2.4219-4.1953v0.003906c5.1445-2.9453 8.332-8.4062 8.3633-14.332 0-0.53125-0.42578-0.95703-0.95703-0.95703h-31.062c-0.52734 0-0.95703 0.42578-0.95703 0.95703 0.03125 5.8516 3.1406 11.254 8.1836 14.227l-2.4805 4.3008h-3.1133c-6.0859-0.007812-11.02-4.9414-11.027-11.031v-26.934c0.007812-6.0859 4.9414-11.02 11.027-11.023h10.039v3.5c0 0.38281 0.22656 0.72656 0.58203 0.87891-2.7578 4.1797-5.8398 9.1172-5.8398 12.93 0 5.8086 4.0898 10.535 9.1172 10.535 5.0273 0 9.1211-4.7266 9.1211-10.535 0-3.8125-3.082-8.75-5.8398-12.93h-0.003906c0.35156-0.15234 0.58203-0.49609 0.58203-0.87891v-3.5h11.289c0.52734 0 0.95312-0.42969 0.95312-0.95703v-9.7539c-0.003906-5.9141-4.7969-10.703-10.707-10.711h-39.379c-4.793 0-9 3.1797-10.305 7.793-1.3047 4.6094 0.61328 9.5273 4.6953 12.035-3.3984 4.4688-5.7266 10.883-6.9062 19.082-1.2148 8.4375-1.2617 19.031-0.14062 31.496h-1.5781c-2.6523 0-4.8008 2.1484-4.8008 4.8008v3.8398c0 0.52734 0.42969 0.95703 0.95703 0.95703h72.457c0.53125 0 0.95703-0.42969 0.95703-0.95703v-3.8477c-0.003906-2.6445-2.1484-4.7891-4.7969-4.793zm-23.062-3.5898h12.777l2.0742 3.5898h-16.922zm-8.0391-13.98h29.09c-0.36328 5.0625-3.3086 9.5781-7.793 11.949-0.16016 0-0.32031 0.042969-0.46094 0.12109h-12.816c-4.6055-2.3398-7.6484-6.918-8.0195-12.07zm14.547-5.4844c-1.0664 0-2.6758-3.4375-2.6758-8.6211 0-3.5859 1.5117-8.8203 2.6758-12.766 1.1641 3.9492 2.6758 9.1836 2.6758 12.766 0 5.1836-1.6094 8.6211-2.6758 8.6211zm-7.207-8.6211c0-2.8242 2.2656-6.8164 4.5117-10.316h-0.003907c-1.0508 3.3477-1.6875 6.8125-1.8906 10.316-0.058594 2.6367 0.40625 5.2539 1.3672 7.707-2.5742-1.707-4.0781-4.6211-3.9844-7.707zm10.43 7.707c0.96094-2.4531 1.4258-5.0703 1.3672-7.707-0.20703-3.5039-0.83984-6.9688-1.8945-10.316 2.2422 3.5 4.5078 7.4922 4.5078 10.316h0.003906c0.09375 3.0859-1.4141 6-3.9844 7.707zm-1.2773-22.473h-3.8906v-2.543h3.8945zm12.191-14.211h-22.738v-7.8438h14c4.4844 0.011719 8.2461 3.3867 8.7383 7.8438zm-48.121-7.8438h23.469v7.8438h-32.215c0.49219-4.4609 4.2578-7.8398 8.7461-7.8438zm-8.7461 9.7539h56.922v7.8438h-48.176c-1.2734 0-2.5312-0.27734-3.6836-0.8125-0.042968-0.023437-0.082031-0.039062-0.12891-0.058593-2.7344-1.3164-4.6016-3.9531-4.9336-6.9727zm4.8867 9.0352c1.2305 0.48047 2.5391 0.72266 3.8594 0.72266h13.324c-3.8359 2.3516-6.1758 6.5273-6.1758 11.027v26.93c0 4.5 2.3398 8.6758 6.1758 11.027h-24.062c-2.2109-24.418 0.10156-41.133 6.8789-49.707zm57.281 57.391h-70.539v-2.8906c0-1.5898 1.2891-2.8828 2.8828-2.8828h64.773c1.5938 0 2.8828 1.293 2.8828 2.8828zm-37.641-70.016c0.90625 0 1.7227-0.54688 2.0703-1.3828 0.34375-0.83984 0.15234-1.8008-0.48828-2.4414-0.64063-0.64062-1.6016-0.83203-2.4414-0.48828-0.83594 0.34766-1.3828 1.1641-1.3828 2.0703 0.003906 1.2383 1.0039 2.2383 2.2422 2.2422zm0-2.5664v-0.003906c0.13281 0 0.25 0.082032 0.30469 0.20312 0.050781 0.12109 0.019531 0.26172-0.074219 0.35938-0.09375 0.09375-0.23438 0.12109-0.35547 0.070313s-0.20312-0.17188-0.20312-0.30469c0.003907-0.17969 0.14844-0.32422 0.32812-0.32812zm-10.43 2.5664c0.90625 0 1.7227-0.54688 2.0703-1.3828 0.34766-0.83984 0.15625-1.8008-0.48438-2.4414s-1.6055-0.83203-2.4414-0.48828c-0.83984 0.34766-1.3828 1.1641-1.3828 2.0703 0 1.2383 1.0039 2.2383 2.2383 2.2422zm0-2.5664v-0.003906c0.13281 0 0.25391 0.082032 0.30469 0.20312 0.050782 0.12109 0.023438 0.26172-0.070312 0.35938-0.09375 0.09375-0.23438 0.12109-0.35938 0.070313-0.12109-0.050781-0.20312-0.17188-0.20312-0.30469 0.003906-0.17969 0.14844-0.32422 0.32812-0.32812zm-5.3125 20.992c-1.3438 0-2.5586 0.80859-3.0742 2.0508-0.51172 1.2422-0.23047 2.6758 0.72266 3.625 0.94922 0.94922 2.3789 1.2344 3.6211 0.72266 1.2461-0.51563 2.0547-1.7266 2.0547-3.0742-0.003907-1.8359-1.4883-3.3203-3.3242-3.3242zm0 4.7383c-0.57031 0-1.0859-0.34766-1.3047-0.875-0.21875-0.52734-0.097656-1.1328 0.30859-1.5352 0.40234-0.40625 1.0078-0.52734 1.5352-0.30859 0.52734 0.21875 0.875 0.73438 0.875 1.3047-0.003906 0.77734-0.63281 1.4102-1.4141 1.4102zm-2.1133 24.898c-1.8594 0-3.5352 1.1211-4.25 2.8398-0.71094 1.7188-0.32031 3.6953 0.99609 5.0117 1.3164 1.3164 3.293 1.7109 5.0117 1 1.7188-0.71094 2.8398-2.3867 2.8438-4.2461 0-2.543-2.0586-4.6055-4.6016-4.6094zm0 7.3008c-1.0898 0-2.0703-0.65625-2.4883-1.6641-0.41797-1.0039-0.18359-2.1641 0.58594-2.9336 0.76953-0.76953 1.9297-1 2.9336-0.58203 1.0078 0.41406 1.6641 1.3984 1.6641 2.4883-0.011719 1.4805-1.2109 2.6797-2.6953 2.6836z"/>
<text x="0.0" y="117.5" font-size="5.0" font-weight="bold" font-family="Arbeit Regular, Helvetica, Arial-Unicode, Arial, Sans-serif" fill="#000000"></text><text x="0.0" y="122.5" font-size="5.0" font-weight="bold" font-family="Arbeit Regular, Helvetica, Arial-Unicode, Arial, Sans-serif" fill="#000000"></text></svg>